<?xml version="1.0" encoding="us-ascii" standalone="no"?><svg xmlns="http://www.w3.org/2000/svg" xmlns:xlink="http://www.w3.org/1999/xlink" contentStyleType="text/css" height="1449px" preserveAspectRatio="none" style="width:464px;height:1449px;background:#FFFFFF;" version="1.1" viewBox="0 0 464 1449" width="464px" zoomAndPan="magnify"><defs/><g><!--class Connect4--><g id="elem_Connect4"><rect codeLine="1" fill="#F1F1F1" height="64.2969" id="Connect4" rx="2.5" ry="2.5" style="stroke:#181818;stroke-width:0.5;" width="101" x="229" y="7"/><ellipse cx="244" cy="23" fill="#ADD1B2" rx="11" ry="11" style="stroke:#181818;stroke-width:1.0;"/><path d="M246.3438,18.6719 C245.4063,18.2344 244.8125,18.0938 243.9375,18.0938 C241.3125,18.0938 239.3125,20.1719 239.3125,22.8906 L239.3125,24.0156 C239.3125,26.5938 241.4219,28.4844 244.3125,28.4844 C245.5313,28.4844 246.6875,28.1875 247.4375,27.6406 C248.0156,27.2344 248.3438,26.7813 248.3438,26.3906 C248.3438,25.9375 247.9531,25.5469 247.4844,25.5469 C247.2656,25.5469 247.0625,25.625 246.875,25.8125 C246.4219,26.2969 246.4219,26.2969 246.2344,26.3906 C245.8125,26.6563 245.125,26.7813 244.3594,26.7813 C242.3125,26.7813 241.0156,25.6875 241.0156,23.9844 L241.0156,22.8906 C241.0156,21.1094 242.2656,19.7969 244,19.7969 C244.5781,19.7969 245.1875,19.9531 245.6563,20.2031 C246.1406,20.4844 246.3125,20.7031 246.4063,21.1094 C246.4688,21.5156 246.5,21.6406 246.6406,21.7656 C246.7813,21.9063 247.0156,22.0156 247.2344,22.0156 C247.5,22.0156 247.7656,21.875 247.9375,21.6563 C248.0469,21.5 248.0781,21.3125 248.0781,20.8906 L248.0781,19.4688 C248.0781,19.0313 248.0625,18.9063 247.9688,18.75 C247.8125,18.4844 247.5313,18.3438 247.2344,18.3438 C246.9375,18.3438 246.7344,18.4375 246.5156,18.75 L246.3438,18.6719 Z " fill="#000000"/><text fill="#000000" font-family="sans-serif" font-size="14" lengthAdjust="spacing" textLength="69" x="258" y="27.8467">Connect4</text><line style="stroke:#181818;stroke-width:0.5;" x1="230" x2="329" y1="39" y2="39"/><line style="stroke:#181818;stroke-width:0.5;" x1="230" x2="329" y1="47" y2="47"/><ellipse cx="240" cy="60.6484" fill="#84BE84" rx="3" ry="3" style="stroke:#038048;stroke-width:1.0;"/><text fill="#000000" font-family="sans-serif" font-size="14" lengthAdjust="spacing" textLength="45" x="249" y="63.9951">start()</text></g><!--class GameView--><g id="elem_GameView"><rect codeLine="2" fill="#F1F1F1" height="178.375" id="GameView" rx="2.5" ry="2.5" style="stroke:#181818;stroke-width:0.5;" width="196" x="78.5" y="131"/><ellipse cx="134.25" cy="147" fill="#ADD1B2" rx="11" ry="11" style="stroke:#181818;stroke-width:1.0;"/><path d="M136.5938,142.6719 C135.6563,142.2344 135.0625,142.0938 134.1875,142.0938 C131.5625,142.0938 129.5625,144.1719 129.5625,146.8906 L129.5625,148.0156 C129.5625,150.5938 131.6719,152.4844 134.5625,152.4844 C135.7813,152.4844 136.9375,152.1875 137.6875,151.6406 C138.2656,151.2344 138.5938,150.7813 138.5938,150.3906 C138.5938,149.9375 138.2031,149.5469 137.7344,149.5469 C137.5156,149.5469 137.3125,149.625 137.125,149.8125 C136.6719,150.2969 136.6719,150.2969 136.4844,150.3906 C136.0625,150.6563 135.375,150.7813 134.6094,150.7813 C132.5625,150.7813 131.2656,149.6875 131.2656,147.9844 L131.2656,146.8906 C131.2656,145.1094 132.5156,143.7969 134.25,143.7969 C134.8281,143.7969 135.4375,143.9531 135.9063,144.2031 C136.3906,144.4844 136.5625,144.7031 136.6563,145.1094 C136.7188,145.5156 136.75,145.6406 136.8906,145.7656 C137.0313,145.9063 137.2656,146.0156 137.4844,146.0156 C137.75,146.0156 138.0156,145.875 138.1875,145.6563 C138.2969,145.5 138.3281,145.3125 138.3281,144.8906 L138.3281,143.4688 C138.3281,143.0313 138.3125,142.9063 138.2188,142.75 C138.0625,142.4844 137.7813,142.3438 137.4844,142.3438 C137.1875,142.3438 136.9844,142.4375 136.7656,142.75 L136.5938,142.6719 Z " fill="#000000"/><text fill="#000000" font-family="sans-serif" font-size="14" lengthAdjust="spacing" textLength="76" x="154.75" y="151.8467">GameView</text><line style="stroke:#181818;stroke-width:0.5;" x1="79.5" x2="273.5" y1="163" y2="163"/><rect fill="none" height="6" style="stroke:#C82930;stroke-width:1.0;" width="6" x="86.5" y="173.6484"/><text fill="#000000" font-family="sans-serif" font-size="14" lengthAdjust="spacing" textLength="170" x="98.5" y="179.9951">boardView{BoardView}</text><line style="stroke:#181818;stroke-width:0.5;" x1="79.5" x2="273.5" y1="187.2969" y2="187.2969"/><ellipse cx="89.5" cy="200.9453" fill="#84BE84" rx="3" ry="3" style="stroke:#038048;stroke-width:1.0;"/><text fill="#000000" font-family="sans-serif" font-size="14" lengthAdjust="spacing" textLength="79" x="98.5" y="204.292">printTitle()</text><ellipse cx="89.5" cy="217.2422" fill="#84BE84" rx="3" ry="3" style="stroke:#038048;stroke-width:1.0;"/><text fill="#000000" font-family="sans-serif" font-size="14" lengthAdjust="spacing" textLength="125" x="98.5" y="220.5889">printWinnerMsg()</text><ellipse cx="89.5" cy="233.5391" fill="#84BE84" rx="3" ry="3" style="stroke:#038048;stroke-width:1.0;"/><text fill="#000000" font-family="sans-serif" font-size="14" lengthAdjust="spacing" textLength="120" x="98.5" y="236.8857">printLosserMsg()</text><ellipse cx="89.5" cy="249.8359" fill="#84BE84" rx="3" ry="3" style="stroke:#038048;stroke-width:1.0;"/><text fill="#000000" font-family="sans-serif" font-size="14" lengthAdjust="spacing" textLength="96" x="98.5" y="253.1826">printTieMsg()</text><ellipse cx="89.5" cy="266.1328" fill="#84BE84" rx="3" ry="3" style="stroke:#038048;stroke-width:1.0;"/><text fill="#000000" font-family="sans-serif" font-size="14" lengthAdjust="spacing" textLength="143" x="98.5" y="269.4795">printRoundResults()</text><ellipse cx="89.5" cy="282.4297" fill="#84BE84" rx="3" ry="3" style="stroke:#038048;stroke-width:1.0;"/><text fill="#000000" font-family="sans-serif" font-size="14" lengthAdjust="spacing" textLength="40" x="98.5" y="285.7764">play()</text><ellipse cx="89.5" cy="298.7266" fill="#84BE84" rx="3" ry="3" style="stroke:#038048;stroke-width:1.0;"/><text fill="#000000" font-family="sans-serif" font-size="14" lengthAdjust="spacing" textLength="63" x="98.5" y="302.0732">resume()</text></g><!--class YesNoDialog--><g id="elem_YesNoDialog"><rect codeLine="3" fill="#F1F1F1" height="145.7813" id="YesNoDialog" rx="2.5" ry="2.5" style="stroke:#181818;stroke-width:0.5;" width="147" x="310" y="147"/><ellipse cx="336.7" cy="163" fill="#ADD1B2" rx="11" ry="11" style="stroke:#181818;stroke-width:1.0;"/><path d="M339.0438,158.6719 C338.1063,158.2344 337.5125,158.0938 336.6375,158.0938 C334.0125,158.0938 332.0125,160.1719 332.0125,162.8906 L332.0125,164.0156 C332.0125,166.5938 334.1219,168.4844 337.0125,168.4844 C338.2313,168.4844 339.3875,168.1875 340.1375,167.6406 C340.7156,167.2344 341.0438,166.7813 341.0438,166.3906 C341.0438,165.9375 340.6531,165.5469 340.1844,165.5469 C339.9656,165.5469 339.7625,165.625 339.575,165.8125 C339.1219,166.2969 339.1219,166.2969 338.9344,166.3906 C338.5125,166.6563 337.825,166.7813 337.0594,166.7813 C335.0125,166.7813 333.7156,165.6875 333.7156,163.9844 L333.7156,162.8906 C333.7156,161.1094 334.9656,159.7969 336.7,159.7969 C337.2781,159.7969 337.8875,159.9531 338.3563,160.2031 C338.8406,160.4844 339.0125,160.7031 339.1063,161.1094 C339.1688,161.5156 339.2,161.6406 339.3406,161.7656 C339.4813,161.9063 339.7156,162.0156 339.9344,162.0156 C340.2,162.0156 340.4656,161.875 340.6375,161.6563 C340.7469,161.5 340.7781,161.3125 340.7781,160.8906 L340.7781,159.4688 C340.7781,159.0313 340.7625,158.9063 340.6688,158.75 C340.5125,158.4844 340.2313,158.3438 339.9344,158.3438 C339.6375,158.3438 339.4344,158.4375 339.2156,158.75 L339.0438,158.6719 Z " fill="#000000"/><text fill="#000000" font-family="sans-serif" font-size="14" lengthAdjust="spacing" textLength="89" x="353.3" y="167.8467">YesNoDialog</text><line style="stroke:#181818;stroke-width:0.5;" x1="311" x2="456" y1="179" y2="179"/><rect fill="none" height="6" style="stroke:#C82930;stroke-width:1.0;" width="6" x="318" y="189.6484"/><text fill="#000000" font-family="sans-serif" font-size="14" lengthAdjust="spacing" textLength="62" x="330" y="195.9951">question</text><rect fill="none" height="6" style="stroke:#C82930;stroke-width:1.0;" width="6" x="318" y="205.9453"/><text fill="#000000" font-family="sans-serif" font-size="14" lengthAdjust="spacing" textLength="50" x="330" y="212.292">answer</text><line style="stroke:#181818;stroke-width:0.5;" x1="311" x2="456" y1="219.5938" y2="219.5938"/><rect fill="#F24D5C" height="6" style="stroke:#C82930;stroke-width:1.0;" width="6" x="318" y="230.2422"/><text fill="#000000" font-family="sans-serif" font-size="14" lengthAdjust="spacing" textLength="94" x="330" y="236.5889">saveAnswer()</text><ellipse cx="321" cy="249.5391" fill="#84BE84" rx="3" ry="3" style="stroke:#038048;stroke-width:1.0;"/><text fill="#000000" font-family="sans-serif" font-size="14" lengthAdjust="spacing" textLength="103" x="330" y="252.8857">isAffirmative()</text><ellipse cx="321" cy="265.8359" fill="#84BE84" rx="3" ry="3" style="stroke:#038048;stroke-width:1.0;"/><text fill="#000000" font-family="sans-serif" font-size="14" lengthAdjust="spacing" textLength="85" x="330" y="269.1826">isNegative()</text><ellipse cx="321" cy="282.1328" fill="#84BE84" rx="3" ry="3" style="stroke:#038048;stroke-width:1.0;"/><text fill="#000000" font-family="sans-serif" font-size="14" lengthAdjust="spacing" textLength="121" x="330" y="285.4795">askToPlayAgain()</text></g><!--class Board--><g id="elem_Board"><rect codeLine="4" fill="#F1F1F1" height="194.6719" id="Board" rx="2.5" ry="2.5" style="stroke:#181818;stroke-width:0.5;" width="169" x="189" y="673"/><ellipse cx="248.25" cy="689" fill="#ADD1B2" rx="11" ry="11" style="stroke:#181818;stroke-width:1.0;"/><path d="M250.5938,684.6719 C249.6563,684.2344 249.0625,684.0938 248.1875,684.0938 C245.5625,684.0938 243.5625,686.1719 243.5625,688.8906 L243.5625,690.0156 C243.5625,692.5938 245.6719,694.4844 248.5625,694.4844 C249.7813,694.4844 250.9375,694.1875 251.6875,693.6406 C252.2656,693.2344 252.5938,692.7813 252.5938,692.3906 C252.5938,691.9375 252.2031,691.5469 251.7344,691.5469 C251.5156,691.5469 251.3125,691.625 251.125,691.8125 C250.6719,692.2969 250.6719,692.2969 250.4844,692.3906 C250.0625,692.6563 249.375,692.7813 248.6094,692.7813 C246.5625,692.7813 245.2656,691.6875 245.2656,689.9844 L245.2656,688.8906 C245.2656,687.1094 246.5156,685.7969 248.25,685.7969 C248.8281,685.7969 249.4375,685.9531 249.9063,686.2031 C250.3906,686.4844 250.5625,686.7031 250.6563,687.1094 C250.7188,687.5156 250.75,687.6406 250.8906,687.7656 C251.0313,687.9063 251.2656,688.0156 251.4844,688.0156 C251.75,688.0156 252.0156,687.875 252.1875,687.6563 C252.2969,687.5 252.3281,687.3125 252.3281,686.8906 L252.3281,685.4688 C252.3281,685.0313 252.3125,684.9063 252.2188,684.75 C252.0625,684.4844 251.7813,684.3438 251.4844,684.3438 C251.1875,684.3438 250.9844,684.4375 250.7656,684.75 L250.5938,684.6719 Z " fill="#000000"/><text fill="#000000" font-family="sans-serif" font-size="14" lengthAdjust="spacing" textLength="42" x="268.75" y="693.8467">Board</text><line style="stroke:#181818;stroke-width:0.5;" x1="190" x2="357" y1="705" y2="705"/><ellipse cx="200" cy="718.6484" fill="none" rx="3" ry="3" style="stroke:#038048;stroke-width:1.0;"/><text fill="#000000" font-family="sans-serif" font-size="14" lengthAdjust="spacing" textLength="108" x="209" y="721.9951">MAX_COLUMNS</text><ellipse cx="200" cy="734.9453" fill="none" rx="3" ry="3" style="stroke:#038048;stroke-width:1.0;"/><text fill="#000000" font-family="sans-serif" font-size="14" lengthAdjust="spacing" textLength="83" x="209" y="738.292">MAX_ROWS</text><ellipse cx="200" cy="751.2422" fill="none" rx="3" ry="3" style="stroke:#038048;stroke-width:1.0;"/><text fill="#000000" font-family="sans-serif" font-size="14" lengthAdjust="spacing" textLength="84" x="209" y="754.5889">turn {Turn}</text><ellipse cx="200" cy="767.5391" fill="none" rx="3" ry="3" style="stroke:#038048;stroke-width:1.0;"/><text fill="#000000" font-family="sans-serif" font-size="14" lengthAdjust="spacing" textLength="52" x="209" y="770.8857">board[]</text><line style="stroke:#181818;stroke-width:0.5;" x1="190" x2="357" y1="778.1875" y2="778.1875"/><ellipse cx="200" cy="791.8359" fill="#84BE84" rx="3" ry="3" style="stroke:#038048;stroke-width:1.0;"/><text fill="#000000" font-family="sans-serif" font-size="14" lengthAdjust="spacing" textLength="102" x="209" y="795.1826">isCompleted()</text><ellipse cx="200" cy="808.1328" fill="#84BE84" rx="3" ry="3" style="stroke:#038048;stroke-width:1.0;"/><text fill="#000000" font-family="sans-serif" font-size="14" lengthAdjust="spacing" textLength="143" x="209" y="811.4795">columnCompleted()</text><ellipse cx="200" cy="824.4297" fill="#84BE84" rx="3" ry="3" style="stroke:#038048;stroke-width:1.0;"/><text fill="#000000" font-family="sans-serif" font-size="14" lengthAdjust="spacing" textLength="120" x="209" y="827.7764">columnInRange()</text><ellipse cx="200" cy="840.7266" fill="#84BE84" rx="3" ry="3" style="stroke:#038048;stroke-width:1.0;"/><text fill="#000000" font-family="sans-serif" font-size="14" lengthAdjust="spacing" textLength="79" x="209" y="844.0732">addtoken()</text><ellipse cx="200" cy="857.0234" fill="#84BE84" rx="3" ry="3" style="stroke:#038048;stroke-width:1.0;"/><text fill="#000000" font-family="sans-serif" font-size="14" lengthAdjust="spacing" textLength="124" x="209" y="860.3701">anyGoalAchived()</text></g><!--class BoardView--><g id="elem_BoardView"><rect codeLine="5" fill="#F1F1F1" height="243.5625" id="BoardView" rx="2.5" ry="2.5" style="stroke:#181818;stroke-width:0.5;" width="206" x="73.5" y="369"/><ellipse cx="134.25" cy="385" fill="#ADD1B2" rx="11" ry="11" style="stroke:#181818;stroke-width:1.0;"/><path d="M136.5938,380.6719 C135.6563,380.2344 135.0625,380.0938 134.1875,380.0938 C131.5625,380.0938 129.5625,382.1719 129.5625,384.8906 L129.5625,386.0156 C129.5625,388.5938 131.6719,390.4844 134.5625,390.4844 C135.7813,390.4844 136.9375,390.1875 137.6875,389.6406 C138.2656,389.2344 138.5938,388.7813 138.5938,388.3906 C138.5938,387.9375 138.2031,387.5469 137.7344,387.5469 C137.5156,387.5469 137.3125,387.625 137.125,387.8125 C136.6719,388.2969 136.6719,388.2969 136.4844,388.3906 C136.0625,388.6563 135.375,388.7813 134.6094,388.7813 C132.5625,388.7813 131.2656,387.6875 131.2656,385.9844 L131.2656,384.8906 C131.2656,383.1094 132.5156,381.7969 134.25,381.7969 C134.8281,381.7969 135.4375,381.9531 135.9063,382.2031 C136.3906,382.4844 136.5625,382.7031 136.6563,383.1094 C136.7188,383.5156 136.75,383.6406 136.8906,383.7656 C137.0313,383.9063 137.2656,384.0156 137.4844,384.0156 C137.75,384.0156 138.0156,383.875 138.1875,383.6563 C138.2969,383.5 138.3281,383.3125 138.3281,382.8906 L138.3281,381.4688 C138.3281,381.0313 138.3125,380.9063 138.2188,380.75 C138.0625,380.4844 137.7813,380.3438 137.4844,380.3438 C137.1875,380.3438 136.9844,380.4375 136.7656,380.75 L136.5938,380.6719 Z " fill="#000000"/><text fill="#000000" font-family="sans-serif" font-size="14" lengthAdjust="spacing" textLength="76" x="154.75" y="389.8467">BoardView</text><line style="stroke:#181818;stroke-width:0.5;" x1="74.5" x2="278.5" y1="401" y2="401"/><rect fill="none" height="6" style="stroke:#C82930;stroke-width:1.0;" width="6" x="81.5" y="411.6484"/><text fill="#000000" font-family="sans-serif" font-size="14" lengthAdjust="spacing" textLength="104" x="93.5" y="417.9951">EMPTY_TOKEN</text><rect fill="none" height="6" style="stroke:#C82930;stroke-width:1.0;" width="6" x="81.5" y="427.9453"/><text fill="#000000" font-family="sans-serif" font-size="14" lengthAdjust="spacing" textLength="42" x="93.5" y="434.292">board</text><ellipse cx="84.5" cy="447.2422" fill="none" rx="3" ry="3" style="stroke:#038048;stroke-width:1.0;"/><text fill="#000000" font-family="sans-serif" font-size="14" lengthAdjust="spacing" textLength="114" x="93.5" y="450.5889">turn{TurnView}</text><line style="stroke:#181818;stroke-width:0.5;" x1="74.5" x2="278.5" y1="457.8906" y2="457.8906"/><rect fill="#F24D5C" height="6" style="stroke:#C82930;stroke-width:1.0;" width="6" x="81.5" y="468.5391"/><text fill="#000000" font-family="sans-serif" font-size="14" lengthAdjust="spacing" textLength="180" x="93.5" y="474.8857">askValidColumnNumber()</text><rect fill="#F24D5C" height="6" style="stroke:#C82930;stroke-width:1.0;" width="6" x="81.5" y="484.8359"/><text fill="#000000" font-family="sans-serif" font-size="14" lengthAdjust="spacing" textLength="143" x="93.5" y="491.1826">columnCompleted()</text><rect fill="#F24D5C" height="6" style="stroke:#C82930;stroke-width:1.0;" width="6" x="81.5" y="501.1328"/><text fill="#000000" font-family="sans-serif" font-size="14" lengthAdjust="spacing" textLength="82" x="93.5" y="507.4795">printError()</text><ellipse cx="84.5" cy="520.4297" fill="#84BE84" rx="3" ry="3" style="stroke:#038048;stroke-width:1.0;"/><text fill="#000000" font-family="sans-serif" font-size="14" lengthAdjust="spacing" textLength="124" x="93.5" y="523.7764">anyGoalAchived()</text><ellipse cx="84.5" cy="536.7266" fill="#84BE84" rx="3" ry="3" style="stroke:#038048;stroke-width:1.0;"/><text fill="#000000" font-family="sans-serif" font-size="14" lengthAdjust="spacing" textLength="88" x="93.5" y="540.0732">printBoard()</text><ellipse cx="84.5" cy="553.0234" fill="#84BE84" rx="3" ry="3" style="stroke:#038048;stroke-width:1.0;"/><text fill="#000000" font-family="sans-serif" font-size="14" lengthAdjust="spacing" textLength="123" x="93.5" y="556.3701">askValidColumn()</text><ellipse cx="84.5" cy="569.3203" fill="#84BE84" rx="3" ry="3" style="stroke:#038048;stroke-width:1.0;"/><text fill="#000000" font-family="sans-serif" font-size="14" lengthAdjust="spacing" textLength="81" x="93.5" y="572.667">addToken()</text><ellipse cx="84.5" cy="585.6172" fill="#84BE84" rx="3" ry="3" style="stroke:#038048;stroke-width:1.0;"/><text fill="#000000" font-family="sans-serif" font-size="14" lengthAdjust="spacing" textLength="133" x="93.5" y="588.9639">boardCompleted()</text><ellipse cx="84.5" cy="601.9141" fill="#84BE84" rx="3" ry="3" style="stroke:#038048;stroke-width:1.0;"/><text fill="#000000" font-family="sans-serif" font-size="14" lengthAdjust="spacing" textLength="81" x="93.5" y="605.2607">addToken()</text></g><!--class Turn--><g id="elem_Turn"><rect codeLine="6" fill="#F1F1F1" height="162.0781" id="Turn" rx="2.5" ry="2.5" style="stroke:#181818;stroke-width:0.5;" width="147" x="7" y="952.5"/><ellipse cx="60.25" cy="968.5" fill="#ADD1B2" rx="11" ry="11" style="stroke:#181818;stroke-width:1.0;"/><path d="M62.5938,964.1719 C61.6563,963.7344 61.0625,963.5938 60.1875,963.5938 C57.5625,963.5938 55.5625,965.6719 55.5625,968.3906 L55.5625,969.5156 C55.5625,972.0938 57.6719,973.9844 60.5625,973.9844 C61.7813,973.9844 62.9375,973.6875 63.6875,973.1406 C64.2656,972.7344 64.5938,972.2813 64.5938,971.8906 C64.5938,971.4375 64.2031,971.0469 63.7344,971.0469 C63.5156,971.0469 63.3125,971.125 63.125,971.3125 C62.6719,971.7969 62.6719,971.7969 62.4844,971.8906 C62.0625,972.1563 61.375,972.2813 60.6094,972.2813 C58.5625,972.2813 57.2656,971.1875 57.2656,969.4844 L57.2656,968.3906 C57.2656,966.6094 58.5156,965.2969 60.25,965.2969 C60.8281,965.2969 61.4375,965.4531 61.9063,965.7031 C62.3906,965.9844 62.5625,966.2031 62.6563,966.6094 C62.7188,967.0156 62.75,967.1406 62.8906,967.2656 C63.0313,967.4063 63.2656,967.5156 63.4844,967.5156 C63.75,967.5156 64.0156,967.375 64.1875,967.1563 C64.2969,967 64.3281,966.8125 64.3281,966.3906 L64.3281,964.9688 C64.3281,964.5313 64.3125,964.4063 64.2188,964.25 C64.0625,963.9844 63.7813,963.8438 63.4844,963.8438 C63.1875,963.8438 62.9844,963.9375 62.7656,964.25 L62.5938,964.1719 Z " fill="#000000"/><text fill="#000000" font-family="sans-serif" font-size="14" lengthAdjust="spacing" textLength="32" x="80.75" y="973.3467">Turn</text><line style="stroke:#181818;stroke-width:0.5;" x1="8" x2="153" y1="984.5" y2="984.5"/><rect fill="none" height="6" style="stroke:#C82930;stroke-width:1.0;" width="6" x="15" y="995.1484"/><text fill="#000000" font-family="sans-serif" font-size="14" lengthAdjust="spacing" textLength="103" x="27" y="1001.4951">MAX_PLAYERS</text><rect fill="none" height="6" style="stroke:#C82930;stroke-width:1.0;" width="6" x="15" y="1011.4453"/><text fill="#000000" font-family="sans-serif" font-size="14" lengthAdjust="spacing" textLength="30" x="27" y="1017.792">turn</text><rect fill="none" height="6" style="stroke:#C82930;stroke-width:1.0;" width="6" x="15" y="1027.7422"/><text fill="#000000" font-family="sans-serif" font-size="14" lengthAdjust="spacing" textLength="50" x="27" y="1034.0889">tokens</text><rect fill="none" height="6" style="stroke:#C82930;stroke-width:1.0;" width="6" x="15" y="1044.0391"/><text fill="#000000" font-family="sans-serif" font-size="14" lengthAdjust="spacing" textLength="91" x="27" y="1050.3857">tokensName</text><line style="stroke:#181818;stroke-width:0.5;" x1="8" x2="153" y1="1057.6875" y2="1057.6875"/><ellipse cx="18" cy="1071.3359" fill="#84BE84" rx="3" ry="3" style="stroke:#038048;stroke-width:1.0;"/><text fill="#000000" font-family="sans-serif" font-size="14" lengthAdjust="spacing" textLength="80" x="27" y="1074.6826">getToken()</text><ellipse cx="18" cy="1087.6328" fill="#84BE84" rx="3" ry="3" style="stroke:#038048;stroke-width:1.0;"/><text fill="#000000" font-family="sans-serif" font-size="14" lengthAdjust="spacing" textLength="121" x="27" y="1090.9795">getTokenName()</text><ellipse cx="18" cy="1103.9297" fill="#84BE84" rx="3" ry="3" style="stroke:#038048;stroke-width:1.0;"/><text fill="#000000" font-family="sans-serif" font-size="14" lengthAdjust="spacing" textLength="43" x="27" y="1107.2764">next()</text></g><!--class TurnView--><g id="elem_TurnView"><rect codeLine="7" fill="#F1F1F1" height="113.1875" id="TurnView" rx="2.5" ry="2.5" style="stroke:#181818;stroke-width:0.5;" width="147" x="7" y="714"/><ellipse cx="44.05" cy="730" fill="#ADD1B2" rx="11" ry="11" style="stroke:#181818;stroke-width:1.0;"/><path d="M46.3938,725.6719 C45.4563,725.2344 44.8625,725.0938 43.9875,725.0938 C41.3625,725.0938 39.3625,727.1719 39.3625,729.8906 L39.3625,731.0156 C39.3625,733.5938 41.4719,735.4844 44.3625,735.4844 C45.5813,735.4844 46.7375,735.1875 47.4875,734.6406 C48.0656,734.2344 48.3938,733.7813 48.3938,733.3906 C48.3938,732.9375 48.0031,732.5469 47.5344,732.5469 C47.3156,732.5469 47.1125,732.625 46.925,732.8125 C46.4719,733.2969 46.4719,733.2969 46.2844,733.3906 C45.8625,733.6563 45.175,733.7813 44.4094,733.7813 C42.3625,733.7813 41.0656,732.6875 41.0656,730.9844 L41.0656,729.8906 C41.0656,728.1094 42.3156,726.7969 44.05,726.7969 C44.6281,726.7969 45.2375,726.9531 45.7063,727.2031 C46.1906,727.4844 46.3625,727.7031 46.4563,728.1094 C46.5188,728.5156 46.55,728.6406 46.6906,728.7656 C46.8313,728.9063 47.0656,729.0156 47.2844,729.0156 C47.55,729.0156 47.8156,728.875 47.9875,728.6563 C48.0969,728.5 48.1281,728.3125 48.1281,727.8906 L48.1281,726.4688 C48.1281,726.0313 48.1125,725.9063 48.0188,725.75 C47.8625,725.4844 47.5813,725.3438 47.2844,725.3438 C46.9875,725.3438 46.7844,725.4375 46.5656,725.75 L46.3938,725.6719 Z " fill="#000000"/><text fill="#000000" font-family="sans-serif" font-size="14" lengthAdjust="spacing" textLength="66" x="62.95" y="734.8467">TurnView</text><line style="stroke:#181818;stroke-width:0.5;" x1="8" x2="153" y1="746" y2="746"/><line style="stroke:#181818;stroke-width:0.5;" x1="8" x2="153" y1="754" y2="754"/><ellipse cx="18" cy="767.6484" fill="#84BE84" rx="3" ry="3" style="stroke:#038048;stroke-width:1.0;"/><text fill="#000000" font-family="sans-serif" font-size="14" lengthAdjust="spacing" textLength="78" x="27" y="770.9951">printTurn()</text><ellipse cx="18" cy="783.9453" fill="#84BE84" rx="3" ry="3" style="stroke:#038048;stroke-width:1.0;"/><text fill="#000000" font-family="sans-serif" font-size="14" lengthAdjust="spacing" textLength="80" x="27" y="787.292">getToken()</text><ellipse cx="18" cy="800.2422" fill="#84BE84" rx="3" ry="3" style="stroke:#038048;stroke-width:1.0;"/><text fill="#000000" font-family="sans-serif" font-size="14" lengthAdjust="spacing" textLength="121" x="27" y="803.5889">getTokenName()</text><ellipse cx="18" cy="816.5391" fill="#84BE84" rx="3" ry="3" style="stroke:#038048;stroke-width:1.0;"/><text fill="#000000" font-family="sans-serif" font-size="14" lengthAdjust="spacing" textLength="43" x="27" y="819.8857">next()</text></g><!--class Token--><g id="elem_Token"><rect codeLine="8" fill="#F1F1F1" height="210.9688" id="Token" rx="2.5" ry="2.5" style="stroke:#181818;stroke-width:0.5;" width="203" x="189" y="928"/><ellipse cx="263.75" cy="944" fill="#ADD1B2" rx="11" ry="11" style="stroke:#181818;stroke-width:1.0;"/><path d="M266.0938,939.6719 C265.1563,939.2344 264.5625,939.0938 263.6875,939.0938 C261.0625,939.0938 259.0625,941.1719 259.0625,943.8906 L259.0625,945.0156 C259.0625,947.5938 261.1719,949.4844 264.0625,949.4844 C265.2813,949.4844 266.4375,949.1875 267.1875,948.6406 C267.7656,948.2344 268.0938,947.7813 268.0938,947.3906 C268.0938,946.9375 267.7031,946.5469 267.2344,946.5469 C267.0156,946.5469 266.8125,946.625 266.625,946.8125 C266.1719,947.2969 266.1719,947.2969 265.9844,947.3906 C265.5625,947.6563 264.875,947.7813 264.1094,947.7813 C262.0625,947.7813 260.7656,946.6875 260.7656,944.9844 L260.7656,943.8906 C260.7656,942.1094 262.0156,940.7969 263.75,940.7969 C264.3281,940.7969 264.9375,940.9531 265.4063,941.2031 C265.8906,941.4844 266.0625,941.7031 266.1563,942.1094 C266.2188,942.5156 266.25,942.6406 266.3906,942.7656 C266.5313,942.9063 266.7656,943.0156 266.9844,943.0156 C267.25,943.0156 267.5156,942.875 267.6875,942.6563 C267.7969,942.5 267.8281,942.3125 267.8281,941.8906 L267.8281,940.4688 C267.8281,940.0313 267.8125,939.9063 267.7188,939.75 C267.5625,939.4844 267.2813,939.3438 266.9844,939.3438 C266.6875,939.3438 266.4844,939.4375 266.2656,939.75 L266.0938,939.6719 Z " fill="#000000"/><text fill="#000000" font-family="sans-serif" font-size="14" lengthAdjust="spacing" textLength="45" x="284.25" y="948.8467">Token</text><line style="stroke:#181818;stroke-width:0.5;" x1="190" x2="391" y1="960" y2="960"/><rect fill="none" height="6" style="stroke:#C82930;stroke-width:1.0;" width="6" x="197" y="970.6484"/><text fill="#000000" font-family="sans-serif" font-size="14" lengthAdjust="spacing" textLength="152" x="209" y="976.9951">Direction{Direction}</text><rect fill="none" height="6" style="stroke:#C82930;stroke-width:1.0;" width="6" x="197" y="986.9453"/><text fill="#000000" font-family="sans-serif" font-size="14" lengthAdjust="spacing" textLength="177" x="209" y="993.292">CONNECTIONS_TO_GOAL</text><ellipse cx="200" cy="1006.2422" fill="none" rx="3" ry="3" style="stroke:#038048;stroke-width:1.0;"/><text fill="#000000" font-family="sans-serif" font-size="14" lengthAdjust="spacing" textLength="26" x="209" y="1009.5889">row</text><ellipse cx="200" cy="1022.5391" fill="none" rx="3" ry="3" style="stroke:#038048;stroke-width:1.0;"/><text fill="#000000" font-family="sans-serif" font-size="14" lengthAdjust="spacing" textLength="52" x="209" y="1025.8857">column</text><ellipse cx="200" cy="1038.8359" fill="none" rx="3" ry="3" style="stroke:#038048;stroke-width:1.0;"/><text fill="#000000" font-family="sans-serif" font-size="14" lengthAdjust="spacing" textLength="97" x="209" y="1042.1826">tokenSymbol</text><rect fill="none" height="6" style="stroke:#C82930;stroke-width:1.0;" width="6" x="197" y="1052.1328"/><text fill="#000000" font-family="sans-serif" font-size="14" lengthAdjust="spacing" textLength="49" x="209" y="1058.4795">parent</text><line style="stroke:#181818;stroke-width:0.5;" x1="190" x2="391" y1="1065.7813" y2="1065.7813"/><ellipse cx="200" cy="1079.4297" fill="#84BE84" rx="3" ry="3" style="stroke:#038048;stroke-width:1.0;"/><text fill="#000000" font-family="sans-serif" font-size="14" lengthAdjust="spacing" textLength="53" x="209" y="1082.7764">isGoal()</text><ellipse cx="200" cy="1095.7266" fill="#84BE84" rx="3" ry="3" style="stroke:#038048;stroke-width:1.0;"/><text fill="#000000" font-family="sans-serif" font-size="14" lengthAdjust="spacing" textLength="94" x="209" y="1099.0732">goalSetters()</text><ellipse cx="200" cy="1112.0234" fill="#84BE84" rx="3" ry="3" style="stroke:#038048;stroke-width:1.0;"/><text fill="#000000" font-family="sans-serif" font-size="14" lengthAdjust="spacing" textLength="139" x="209" y="1115.3701">countConsecutive()</text><ellipse cx="200" cy="1128.3203" fill="#84BE84" rx="3" ry="3" style="stroke:#038048;stroke-width:1.0;"/><text fill="#000000" font-family="sans-serif" font-size="14" lengthAdjust="spacing" textLength="109" x="209" y="1131.667">getNeighbour()</text></g><!--class Direction--><g id="elem_Direction"><rect codeLine="9" fill="#F1F1F1" height="243.5625" id="Direction" rx="2.5" ry="2.5" style="stroke:#181818;stroke-width:0.5;" width="133" x="224" y="1199"/><ellipse cx="254.3" cy="1215" fill="#ADD1B2" rx="11" ry="11" style="stroke:#181818;stroke-width:1.0;"/><path d="M256.6438,1210.6719 C255.7063,1210.2344 255.1125,1210.0938 254.2375,1210.0938 C251.6125,1210.0938 249.6125,1212.1719 249.6125,1214.8906 L249.6125,1216.0156 C249.6125,1218.5938 251.7219,1220.4844 254.6125,1220.4844 C255.8313,1220.4844 256.9875,1220.1875 257.7375,1219.6406 C258.3156,1219.2344 258.6438,1218.7813 258.6438,1218.3906 C258.6438,1217.9375 258.2531,1217.5469 257.7844,1217.5469 C257.5656,1217.5469 257.3625,1217.625 257.175,1217.8125 C256.7219,1218.2969 256.7219,1218.2969 256.5344,1218.3906 C256.1125,1218.6563 255.425,1218.7813 254.6594,1218.7813 C252.6125,1218.7813 251.3156,1217.6875 251.3156,1215.9844 L251.3156,1214.8906 C251.3156,1213.1094 252.5656,1211.7969 254.3,1211.7969 C254.8781,1211.7969 255.4875,1211.9531 255.9563,1212.2031 C256.4406,1212.4844 256.6125,1212.7031 256.7063,1213.1094 C256.7688,1213.5156 256.8,1213.6406 256.9406,1213.7656 C257.0813,1213.9063 257.3156,1214.0156 257.5344,1214.0156 C257.8,1214.0156 258.0656,1213.875 258.2375,1213.6563 C258.3469,1213.5 258.3781,1213.3125 258.3781,1212.8906 L258.3781,1211.4688 C258.3781,1211.0313 258.3625,1210.9063 258.2688,1210.75 C258.1125,1210.4844 257.8313,1210.3438 257.5344,1210.3438 C257.2375,1210.3438 257.0344,1210.4375 256.8156,1210.75 L256.6438,1210.6719 Z " fill="#000000"/><text fill="#000000" font-family="sans-serif" font-size="14" lengthAdjust="spacing" textLength="67" x="271.7" y="1219.8467">Direction</text><line style="stroke:#181818;stroke-width:0.5;" x1="225" x2="356" y1="1231" y2="1231"/><rect fill="none" height="6" style="stroke:#C82930;stroke-width:1.0;" width="6" x="232" y="1241.6484"/><text fill="#000000" font-family="sans-serif" font-size="14" lengthAdjust="spacing" textLength="72" x="244" y="1247.9951">rowOffset</text><rect fill="none" height="6" style="stroke:#C82930;stroke-width:1.0;" width="6" x="232" y="1257.9453"/><text fill="#000000" font-family="sans-serif" font-size="14" lengthAdjust="spacing" textLength="98" x="244" y="1264.292">columnOffset</text><rect fill="none" height="6" style="stroke:#C82930;stroke-width:1.0;" width="6" x="232" y="1274.2422"/><text fill="#000000" font-family="sans-serif" font-size="14" lengthAdjust="spacing" textLength="50" x="244" y="1280.5889">NORTH</text><rect fill="none" height="6" style="stroke:#C82930;stroke-width:1.0;" width="6" x="232" y="1290.5391"/><text fill="#000000" font-family="sans-serif" font-size="14" lengthAdjust="spacing" textLength="37" x="244" y="1296.8857">EAST</text><rect fill="none" height="6" style="stroke:#C82930;stroke-width:1.0;" width="6" x="232" y="1306.8359"/><text fill="#000000" font-family="sans-serif" font-size="14" lengthAdjust="spacing" textLength="41" x="244" y="1313.1826">WEST</text><rect fill="none" height="6" style="stroke:#C82930;stroke-width:1.0;" width="6" x="232" y="1323.1328"/><text fill="#000000" font-family="sans-serif" font-size="14" lengthAdjust="spacing" textLength="42" x="244" y="1329.4795">FIXED</text><line style="stroke:#181818;stroke-width:0.5;" x1="225" x2="356" y1="1336.7813" y2="1336.7813"/><ellipse cx="235" cy="1350.4297" fill="#84BE84" rx="3" ry="3" style="stroke:#038048;stroke-width:1.0;"/><text fill="#000000" font-family="sans-serif" font-size="14" lengthAdjust="spacing" textLength="104" x="244" y="1353.7764">switchOffSet()</text><ellipse cx="235" cy="1366.7266" fill="#84BE84" rx="3" ry="3" style="stroke:#038048;stroke-width:1.0;"/><text fill="#000000" font-family="sans-serif" font-size="14" lengthAdjust="spacing" textLength="89" x="244" y="1370.0732">setVertical()</text><ellipse cx="235" cy="1383.0234" fill="#84BE84" rx="3" ry="3" style="stroke:#038048;stroke-width:1.0;"/><text fill="#000000" font-family="sans-serif" font-size="14" lengthAdjust="spacing" textLength="107" x="244" y="1386.3701">setHorizontal()</text><ellipse cx="235" cy="1399.3203" fill="#84BE84" rx="3" ry="3" style="stroke:#038048;stroke-width:1.0;"/><text fill="#000000" font-family="sans-serif" font-size="14" lengthAdjust="spacing" textLength="95" x="244" y="1402.667">setDiagonal()</text><ellipse cx="235" cy="1415.6172" fill="#84BE84" rx="3" ry="3" style="stroke:#038048;stroke-width:1.0;"/><text fill="#000000" font-family="sans-serif" font-size="14" lengthAdjust="spacing" textLength="85" x="244" y="1418.9639">setInverse()</text><ellipse cx="235" cy="1431.9141" fill="#84BE84" rx="3" ry="3" style="stroke:#038048;stroke-width:1.0;"/><text fill="#000000" font-family="sans-serif" font-size="14" lengthAdjust="spacing" textLength="81" x="244" y="1435.2607">getOffset()</text></g><!--reverse link Connect4 to YesNoDialog--><g id="link_Connect4_YesNoDialog"><path codeLine="12" d="M303.6447,81.5551 C315.8087,102.4851 326.323,120.59 341.644,146.96 " fill="none" id="Connect4-backto-YesNoDialog" style="stroke:#181818;stroke-width:1.0;"/><polygon fill="#181818" points="297.615,71.18,297.1715,78.3775,303.6447,81.5551,304.0882,74.3576,297.615,71.18" style="stroke:#181818;stroke-width:1.0;"/></g><!--reverse link Connect4 to GameView--><g id="link_Connect4_GameView"><path codeLine="13" d="M255.5744,81.5812 C245.9484,98.3112 239.538,109.45 227.203,130.88 " fill="none" id="Connect4-backto-GameView" style="stroke:#181818;stroke-width:1.0;"/><polygon fill="#181818" points="261.559,71.18,255.0996,74.3857,255.5744,81.5812,262.0338,78.3755,261.559,71.18" style="stroke:#181818;stroke-width:1.0;"/></g><!--reverse link GameView to BoardView--><g id="link_GameView_BoardView"><path codeLine="14" d="M176.5,321.08 C176.5,340.23 176.5,348.82 176.5,368.99 " fill="none" id="GameView-backto-BoardView" style="stroke:#181818;stroke-width:1.0;"/><polygon fill="#181818" points="176.5,309.08,172.5,315.08,176.5,321.08,180.5,315.08,176.5,309.08" style="stroke:#181818;stroke-width:1.0;"/></g><!--reverse link BoardView to TurnView--><g id="link_BoardView_TurnView"><path codeLine="15" d="M130.6097,624.6525 C118.5007,659.6545 109.795,684.82 99.7935,713.73 " fill="none" id="BoardView-backto-TurnView" style="stroke:#181818;stroke-width:1.0;"/><polygon fill="#181818" points="134.533,613.312,128.7912,617.6745,130.6097,624.6525,136.3515,620.29,134.533,613.312" style="stroke:#181818;stroke-width:1.0;"/></g><!--link BoardView to Board--><g id="link_BoardView_Board"><path codeLine="16" d="M218.905,613.312 C225.838,633.146 230.9601,647.8001 237.6521,666.9441 " fill="none" id="BoardView-to-Board" style="stroke:#181818;stroke-width:1.0;stroke-dasharray:7.0,7.0;"/><polygon fill="#181818" points="239.632,672.608,240.4381,662.7922,237.9821,667.8881,232.8862,665.432,239.632,672.608" style="stroke:#181818;stroke-width:1.0;"/></g><!--reverse link Board to Turn--><g id="link_Board_Turn"><path codeLine="17" d="M194.7732,877.9645 C174.2832,905.6735 159.32,925.909 139.665,952.489 " fill="none" id="Board-backto-Turn" style="stroke:#181818;stroke-width:1.0;"/><polygon fill="#181818" points="201.908,868.316,195.1244,870.762,194.7732,877.9645,201.5568,875.5185,201.908,868.316" style="stroke:#181818;stroke-width:1.0;"/></g><!--reverse link Board to Token--><g id="link_Board_Token"><path codeLine="18" d="M280.5858,880.2906 C281.8518,899.7306 282.408,908.266 283.691,927.955 " fill="none" id="Board-backto-Token" style="stroke:#181818;stroke-width:1.0;"/><polygon fill="none" points="279.806,868.316,276.2044,874.5633,280.5858,880.2906,284.1875,874.0434,279.806,868.316" style="stroke:#181818;stroke-width:1.0;"/></g><!--reverse link Token to Direction--><g id="link_Token_Direction"><path codeLine="19" d="M290.5,1151.189 C290.5,1170.604 290.5,1179.033 290.5,1198.89 " fill="none" id="Token-backto-Direction" style="stroke:#181818;stroke-width:1.0;"/><polygon fill="#181818" points="290.5,1139.189,286.5,1145.189,290.5,1151.189,294.5,1145.189,290.5,1139.189" style="stroke:#181818;stroke-width:1.0;"/></g><!--link TurnView to Turn--><g id="link_TurnView_Turn"><path codeLine="20" d="M80.5,827.171 C80.5,863.626 80.5,905.848 80.5,946.399 " fill="none" id="TurnView-to-Turn" style="stroke:#181818;stroke-width:1.0;stroke-dasharray:7.0,7.0;"/><polygon fill="#181818" points="80.5,952.399,84.5,943.399,80.5,947.399,76.5,943.399,80.5,952.399" style="stroke:#181818;stroke-width:1.0;"/></g><!--SRC=[TLHDSzem4BtxLt1Cof1JJprqnYLkmXJi3BWacKud8ypYQ69BgII7KeR_tfN0rWVcuj6-jnzlTsKL5P5oCEQCGQ4-HuKnxqWDImhRa_aCCkMtb5IyF27VE15hz-nuvurWpj5b-1kqr2qLM91o5aLHMttmQJJoYdb49wez6DHMxqu6xqfR-ERcwqcu-NPk9vDhqoWqNqDRbMq-ayL4MNLV1aEfY51Nrr7ao4TyzAS1QU83d32v1H6Yadn0R1XCvND3AkFDXegQAFe1VNGAvGMEoBUSFrHa5vU4Cgso6o4MNRK3sdUZEhWEmtT1cSgfgdJgC-AHuXJ4J9Pzv9HBUP7CALnWvhnXwpd8fb8ovB6D01BeM6jjpgwnhsJsa3-_vDcF9FM9bRq3RGg52zstApxuxZYz9QdeUiohfcPfKw_CUZoVmd1ZNhzNe60TqgQfH0WU1Wu9szrnKiN5AsukZ3iEmo1dSPweCtQzDdSun4tdhigBOVQ-Tzj200aNBq6r_drmIinMN8h1NzLcruEPnKyl3zFuEPalEaplmXewaGnCdRY5GX4N1BZ5Zxyx0hhwE9l-dAKB7vndZmwY1GtCxJXOq8porsyBK7csVWrVk1cMch0vOIMu1Ev1kUlhlIYdLmg7qZrI- -vqiEmuIzDad4-oT84_myjT5ayxSYZuTc2jeo1h6n6BNRtYbSttJWGmPPserBhqc5kaH7i1Ie6GBbpWJwtmpPHGDATtoeQ0Ie6MholUw5yawXhH5L5ajjb8K3vyLDl7fDayl_UX95xaFlAOXCZtoLDowq53kQMgUCKQs0_gyZbGIn2A5gRxaBhdWlxZJFMI-3INdFLI4_Q1SuEGmG4TExsw_Wy0]--></g></svg>