<?xml version="1.0" encoding="us-ascii" standalone="no"?><svg xmlns="http://www.w3.org/2000/svg" xmlns:xlink="http://www.w3.org/1999/xlink" contentStyleType="text/css" height="1329px" preserveAspectRatio="none" style="width:728px;height:1329px;background:#FFFFFF;" version="1.1" viewBox="0 0 728 1329" width="728px" zoomAndPan="magnify"><defs/><g><!--class Connect4--><g id="elem_Connect4"><rect codeLine="1" fill="#F1F1F1" height="64.2969" id="Connect4" rx="2.5" ry="2.5" style="stroke:#181818;stroke-width:0.5;" width="101" x="404" y="7"/><ellipse cx="419" cy="23" fill="#ADD1B2" rx="11" ry="11" style="stroke:#181818;stroke-width:1.0;"/><path d="M421.3438,18.6719 C420.4063,18.2344 419.8125,18.0938 418.9375,18.0938 C416.3125,18.0938 414.3125,20.1719 414.3125,22.8906 L414.3125,24.0156 C414.3125,26.5938 416.4219,28.4844 419.3125,28.4844 C420.5313,28.4844 421.6875,28.1875 422.4375,27.6406 C423.0156,27.2344 423.3438,26.7813 423.3438,26.3906 C423.3438,25.9375 422.9531,25.5469 422.4844,25.5469 C422.2656,25.5469 422.0625,25.625 421.875,25.8125 C421.4219,26.2969 421.4219,26.2969 421.2344,26.3906 C420.8125,26.6563 420.125,26.7813 419.3594,26.7813 C417.3125,26.7813 416.0156,25.6875 416.0156,23.9844 L416.0156,22.8906 C416.0156,21.1094 417.2656,19.7969 419,19.7969 C419.5781,19.7969 420.1875,19.9531 420.6563,20.2031 C421.1406,20.4844 421.3125,20.7031 421.4063,21.1094 C421.4688,21.5156 421.5,21.6406 421.6406,21.7656 C421.7813,21.9063 422.0156,22.0156 422.2344,22.0156 C422.5,22.0156 422.7656,21.875 422.9375,21.6563 C423.0469,21.5 423.0781,21.3125 423.0781,20.8906 L423.0781,19.4688 C423.0781,19.0313 423.0625,18.9063 422.9688,18.75 C422.8125,18.4844 422.5313,18.3438 422.2344,18.3438 C421.9375,18.3438 421.7344,18.4375 421.5156,18.75 L421.3438,18.6719 Z " fill="#000000"/><text fill="#000000" font-family="sans-serif" font-size="14" lengthAdjust="spacing" textLength="69" x="433" y="27.8467">Connect4</text><line style="stroke:#181818;stroke-width:0.5;" x1="405" x2="504" y1="39" y2="39"/><line style="stroke:#181818;stroke-width:0.5;" x1="405" x2="504" y1="47" y2="47"/><ellipse cx="415" cy="60.6484" fill="#84BE84" rx="3" ry="3" style="stroke:#038048;stroke-width:1.0;"/><text fill="#000000" font-family="sans-serif" font-size="14" lengthAdjust="spacing" textLength="45" x="424" y="63.9951">start()</text></g><!--class Game--><g id="elem_Game"><rect codeLine="2" fill="#F1F1F1" height="96.8906" id="Game" rx="2.5" ry="2.5" style="stroke:#181818;stroke-width:0.5;" width="132" x="250.5" y="337"/><ellipse cx="291.6" cy="353" fill="#ADD1B2" rx="11" ry="11" style="stroke:#181818;stroke-width:1.0;"/><path d="M293.9438,348.6719 C293.0063,348.2344 292.4125,348.0938 291.5375,348.0938 C288.9125,348.0938 286.9125,350.1719 286.9125,352.8906 L286.9125,354.0156 C286.9125,356.5938 289.0219,358.4844 291.9125,358.4844 C293.1313,358.4844 294.2875,358.1875 295.0375,357.6406 C295.6156,357.2344 295.9438,356.7813 295.9438,356.3906 C295.9438,355.9375 295.5531,355.5469 295.0844,355.5469 C294.8656,355.5469 294.6625,355.625 294.475,355.8125 C294.0219,356.2969 294.0219,356.2969 293.8344,356.3906 C293.4125,356.6563 292.725,356.7813 291.9594,356.7813 C289.9125,356.7813 288.6156,355.6875 288.6156,353.9844 L288.6156,352.8906 C288.6156,351.1094 289.8656,349.7969 291.6,349.7969 C292.1781,349.7969 292.7875,349.9531 293.2563,350.2031 C293.7406,350.4844 293.9125,350.7031 294.0063,351.1094 C294.0688,351.5156 294.1,351.6406 294.2406,351.7656 C294.3813,351.9063 294.6156,352.0156 294.8344,352.0156 C295.1,352.0156 295.3656,351.875 295.5375,351.6563 C295.6469,351.5 295.6781,351.3125 295.6781,350.8906 L295.6781,349.4688 C295.6781,349.0313 295.6625,348.9063 295.5688,348.75 C295.4125,348.4844 295.1313,348.3438 294.8344,348.3438 C294.5375,348.3438 294.3344,348.4375 294.1156,348.75 L293.9438,348.6719 Z " fill="#000000"/><text fill="#000000" font-family="sans-serif" font-size="14" lengthAdjust="spacing" textLength="42" x="311.4" y="357.8467">Game</text><line style="stroke:#181818;stroke-width:0.5;" x1="251.5" x2="381.5" y1="369" y2="369"/><ellipse cx="261.5" cy="382.6484" fill="none" rx="3" ry="3" style="stroke:#038048;stroke-width:1.0;"/><text fill="#000000" font-family="sans-serif" font-size="14" lengthAdjust="spacing" textLength="106" x="270.5" y="385.9951">board {Board}</text><line style="stroke:#181818;stroke-width:0.5;" x1="251.5" x2="381.5" y1="393.2969" y2="393.2969"/><rect fill="#F24D5C" height="6" style="stroke:#C82930;stroke-width:1.0;" width="6" x="258.5" y="403.9453"/><text fill="#000000" font-family="sans-serif" font-size="14" lengthAdjust="spacing" textLength="63" x="270.5" y="410.292">resume()</text><ellipse cx="261.5" cy="423.2422" fill="#84BE84" rx="3" ry="3" style="stroke:#038048;stroke-width:1.0;"/><text fill="#000000" font-family="sans-serif" font-size="14" lengthAdjust="spacing" textLength="40" x="270.5" y="426.5889">play()</text></g><!--class GameView--><g id="elem_GameView"><rect codeLine="3" fill="#F1F1F1" height="129.4844" id="GameView" rx="2.5" ry="2.5" style="stroke:#181818;stroke-width:0.5;" width="169" x="370" y="139.5"/><ellipse cx="412.45" cy="155.5" fill="#ADD1B2" rx="11" ry="11" style="stroke:#181818;stroke-width:1.0;"/><path d="M414.7938,151.1719 C413.8563,150.7344 413.2625,150.5938 412.3875,150.5938 C409.7625,150.5938 407.7625,152.6719 407.7625,155.3906 L407.7625,156.5156 C407.7625,159.0938 409.8719,160.9844 412.7625,160.9844 C413.9813,160.9844 415.1375,160.6875 415.8875,160.1406 C416.4656,159.7344 416.7938,159.2813 416.7938,158.8906 C416.7938,158.4375 416.4031,158.0469 415.9344,158.0469 C415.7156,158.0469 415.5125,158.125 415.325,158.3125 C414.8719,158.7969 414.8719,158.7969 414.6844,158.8906 C414.2625,159.1563 413.575,159.2813 412.8094,159.2813 C410.7625,159.2813 409.4656,158.1875 409.4656,156.4844 L409.4656,155.3906 C409.4656,153.6094 410.7156,152.2969 412.45,152.2969 C413.0281,152.2969 413.6375,152.4531 414.1063,152.7031 C414.5906,152.9844 414.7625,153.2031 414.8563,153.6094 C414.9188,154.0156 414.95,154.1406 415.0906,154.2656 C415.2313,154.4063 415.4656,154.5156 415.6844,154.5156 C415.95,154.5156 416.2156,154.375 416.3875,154.1563 C416.4969,154 416.5281,153.8125 416.5281,153.3906 L416.5281,151.9688 C416.5281,151.5313 416.5125,151.4063 416.4188,151.25 C416.2625,150.9844 415.9813,150.8438 415.6844,150.8438 C415.3875,150.8438 415.1844,150.9375 414.9656,151.25 L414.7938,151.1719 Z " fill="#000000"/><text fill="#000000" font-family="sans-serif" font-size="14" lengthAdjust="spacing" textLength="76" x="432.55" y="160.3467">GameView</text><line style="stroke:#181818;stroke-width:0.5;" x1="371" x2="538" y1="171.5" y2="171.5"/><line style="stroke:#181818;stroke-width:0.5;" x1="371" x2="538" y1="179.5" y2="179.5"/><ellipse cx="381" cy="193.1484" fill="#84BE84" rx="3" ry="3" style="stroke:#038048;stroke-width:1.0;"/><text fill="#000000" font-family="sans-serif" font-size="14" lengthAdjust="spacing" textLength="79" x="390" y="196.4951">printTitle()</text><ellipse cx="381" cy="209.4453" fill="#84BE84" rx="3" ry="3" style="stroke:#038048;stroke-width:1.0;"/><text fill="#000000" font-family="sans-serif" font-size="14" lengthAdjust="spacing" textLength="125" x="390" y="212.792">printWinnerMsg()</text><ellipse cx="381" cy="225.7422" fill="#84BE84" rx="3" ry="3" style="stroke:#038048;stroke-width:1.0;"/><text fill="#000000" font-family="sans-serif" font-size="14" lengthAdjust="spacing" textLength="120" x="390" y="229.0889">printLosserMsg()</text><ellipse cx="381" cy="242.0391" fill="#84BE84" rx="3" ry="3" style="stroke:#038048;stroke-width:1.0;"/><text fill="#000000" font-family="sans-serif" font-size="14" lengthAdjust="spacing" textLength="96" x="390" y="245.3857">printTieMsg()</text><ellipse cx="381" cy="258.3359" fill="#84BE84" rx="3" ry="3" style="stroke:#038048;stroke-width:1.0;"/><text fill="#000000" font-family="sans-serif" font-size="14" lengthAdjust="spacing" textLength="143" x="390" y="261.6826">printRoundResults()</text></g><!--class YesNoDialog--><g id="elem_YesNoDialog"><rect codeLine="4" fill="#F1F1F1" height="145.7813" id="YesNoDialog" rx="2.5" ry="2.5" style="stroke:#181818;stroke-width:0.5;" width="147" x="574" y="131"/><ellipse cx="600.7" cy="147" fill="#ADD1B2" rx="11" ry="11" style="stroke:#181818;stroke-width:1.0;"/><path d="M603.0438,142.6719 C602.1063,142.2344 601.5125,142.0938 600.6375,142.0938 C598.0125,142.0938 596.0125,144.1719 596.0125,146.8906 L596.0125,148.0156 C596.0125,150.5938 598.1219,152.4844 601.0125,152.4844 C602.2313,152.4844 603.3875,152.1875 604.1375,151.6406 C604.7156,151.2344 605.0438,150.7813 605.0438,150.3906 C605.0438,149.9375 604.6531,149.5469 604.1844,149.5469 C603.9656,149.5469 603.7625,149.625 603.575,149.8125 C603.1219,150.2969 603.1219,150.2969 602.9344,150.3906 C602.5125,150.6563 601.825,150.7813 601.0594,150.7813 C599.0125,150.7813 597.7156,149.6875 597.7156,147.9844 L597.7156,146.8906 C597.7156,145.1094 598.9656,143.7969 600.7,143.7969 C601.2781,143.7969 601.8875,143.9531 602.3563,144.2031 C602.8406,144.4844 603.0125,144.7031 603.1063,145.1094 C603.1688,145.5156 603.2,145.6406 603.3406,145.7656 C603.4813,145.9063 603.7156,146.0156 603.9344,146.0156 C604.2,146.0156 604.4656,145.875 604.6375,145.6563 C604.7469,145.5 604.7781,145.3125 604.7781,144.8906 L604.7781,143.4688 C604.7781,143.0313 604.7625,142.9063 604.6688,142.75 C604.5125,142.4844 604.2313,142.3438 603.9344,142.3438 C603.6375,142.3438 603.4344,142.4375 603.2156,142.75 L603.0438,142.6719 Z " fill="#000000"/><text fill="#000000" font-family="sans-serif" font-size="14" lengthAdjust="spacing" textLength="89" x="617.3" y="151.8467">YesNoDialog</text><line style="stroke:#181818;stroke-width:0.5;" x1="575" x2="720" y1="163" y2="163"/><rect fill="none" height="6" style="stroke:#C82930;stroke-width:1.0;" width="6" x="582" y="173.6484"/><text fill="#000000" font-family="sans-serif" font-size="14" lengthAdjust="spacing" textLength="62" x="594" y="179.9951">question</text><rect fill="none" height="6" style="stroke:#C82930;stroke-width:1.0;" width="6" x="582" y="189.9453"/><text fill="#000000" font-family="sans-serif" font-size="14" lengthAdjust="spacing" textLength="50" x="594" y="196.292">answer</text><line style="stroke:#181818;stroke-width:0.5;" x1="575" x2="720" y1="203.5938" y2="203.5938"/><rect fill="#F24D5C" height="6" style="stroke:#C82930;stroke-width:1.0;" width="6" x="582" y="214.2422"/><text fill="#000000" font-family="sans-serif" font-size="14" lengthAdjust="spacing" textLength="94" x="594" y="220.5889">saveAnswer()</text><ellipse cx="585" cy="233.5391" fill="#84BE84" rx="3" ry="3" style="stroke:#038048;stroke-width:1.0;"/><text fill="#000000" font-family="sans-serif" font-size="14" lengthAdjust="spacing" textLength="103" x="594" y="236.8857">isAffirmative()</text><ellipse cx="585" cy="249.8359" fill="#84BE84" rx="3" ry="3" style="stroke:#038048;stroke-width:1.0;"/><text fill="#000000" font-family="sans-serif" font-size="14" lengthAdjust="spacing" textLength="85" x="594" y="253.1826">isNegative()</text><ellipse cx="585" cy="266.1328" fill="#84BE84" rx="3" ry="3" style="stroke:#038048;stroke-width:1.0;"/><text fill="#000000" font-family="sans-serif" font-size="14" lengthAdjust="spacing" textLength="121" x="594" y="269.4795">askToPlayAgain()</text></g><!--class Board--><g id="elem_Board"><rect codeLine="5" fill="#F1F1F1" height="276.1563" id="Board" rx="2.5" ry="2.5" style="stroke:#181818;stroke-width:0.5;" width="273" x="7" y="700"/><ellipse cx="118.25" cy="716" fill="#ADD1B2" rx="11" ry="11" style="stroke:#181818;stroke-width:1.0;"/><path d="M120.5938,711.6719 C119.6563,711.2344 119.0625,711.0938 118.1875,711.0938 C115.5625,711.0938 113.5625,713.1719 113.5625,715.8906 L113.5625,717.0156 C113.5625,719.5938 115.6719,721.4844 118.5625,721.4844 C119.7813,721.4844 120.9375,721.1875 121.6875,720.6406 C122.2656,720.2344 122.5938,719.7813 122.5938,719.3906 C122.5938,718.9375 122.2031,718.5469 121.7344,718.5469 C121.5156,718.5469 121.3125,718.625 121.125,718.8125 C120.6719,719.2969 120.6719,719.2969 120.4844,719.3906 C120.0625,719.6563 119.375,719.7813 118.6094,719.7813 C116.5625,719.7813 115.2656,718.6875 115.2656,716.9844 L115.2656,715.8906 C115.2656,714.1094 116.5156,712.7969 118.25,712.7969 C118.8281,712.7969 119.4375,712.9531 119.9063,713.2031 C120.3906,713.4844 120.5625,713.7031 120.6563,714.1094 C120.7188,714.5156 120.75,714.6406 120.8906,714.7656 C121.0313,714.9063 121.2656,715.0156 121.4844,715.0156 C121.75,715.0156 122.0156,714.875 122.1875,714.6563 C122.2969,714.5 122.3281,714.3125 122.3281,713.8906 L122.3281,712.4688 C122.3281,712.0313 122.3125,711.9063 122.2188,711.75 C122.0625,711.4844 121.7813,711.3438 121.4844,711.3438 C121.1875,711.3438 120.9844,711.4375 120.7656,711.75 L120.5938,711.6719 Z " fill="#000000"/><text fill="#000000" font-family="sans-serif" font-size="14" lengthAdjust="spacing" textLength="42" x="138.75" y="720.8467">Board</text><line style="stroke:#181818;stroke-width:0.5;" x1="8" x2="279" y1="732" y2="732"/><text fill="#000000" font-family="sans-serif" font-size="14" lengthAdjust="spacing" textLength="69" x="27" y="748.9951">COLUMNS</text><text fill="#000000" font-family="sans-serif" font-size="14" lengthAdjust="spacing" textLength="44" x="27" y="765.292">ROWS</text><text fill="#000000" font-family="sans-serif" font-size="14" lengthAdjust="spacing" textLength="104" x="27" y="781.5889">TOKEN_EMPTY</text><text fill="#000000" font-family="sans-serif" font-size="14" lengthAdjust="spacing" textLength="52" x="27" y="797.8857">board[]</text><ellipse cx="18" cy="810.8359" fill="none" rx="3" ry="3" style="stroke:#038048;stroke-width:1.0;"/><text fill="#000000" font-family="sans-serif" font-size="14" lengthAdjust="spacing" textLength="84" x="27" y="814.1826">turn {Turn}</text><line style="stroke:#181818;stroke-width:0.5;" x1="8" x2="279" y1="821.4844" y2="821.4844"/><rect fill="#F24D5C" height="6" style="stroke:#C82930;stroke-width:1.0;" width="6" x="15" y="832.1328"/><text fill="#000000" font-family="sans-serif" font-size="14" lengthAdjust="spacing" textLength="247" x="27" y="838.4795">getLowestAvailableSpace(column)</text><ellipse cx="18" cy="851.4297" fill="#84BE84" rx="3" ry="3" style="stroke:#038048;stroke-width:1.0;"/><text fill="#000000" font-family="sans-serif" font-size="14" lengthAdjust="spacing" textLength="102" x="27" y="854.7764">isCompleted()</text><ellipse cx="18" cy="867.7266" fill="#84BE84" rx="3" ry="3" style="stroke:#038048;stroke-width:1.0;"/><text fill="#000000" font-family="sans-serif" font-size="14" lengthAdjust="spacing" textLength="139" x="27" y="871.0732">addtokenToBoard()</text><ellipse cx="18" cy="884.0234" fill="#84BE84" rx="3" ry="3" style="stroke:#038048;stroke-width:1.0;"/><text fill="#000000" font-family="sans-serif" font-size="14" lengthAdjust="spacing" textLength="120" x="27" y="887.3701">columnInRange()</text><ellipse cx="18" cy="900.3203" fill="#84BE84" rx="3" ry="3" style="stroke:#038048;stroke-width:1.0;"/><text fill="#000000" font-family="sans-serif" font-size="14" lengthAdjust="spacing" textLength="143" x="27" y="903.667">columnCompleted()</text><ellipse cx="18" cy="916.6172" fill="#84BE84" rx="3" ry="3" style="stroke:#038048;stroke-width:1.0;"/><text fill="#000000" font-family="sans-serif" font-size="14" lengthAdjust="spacing" textLength="101" x="27" y="919.9639">maxColumns()</text><ellipse cx="18" cy="932.9141" fill="#84BE84" rx="3" ry="3" style="stroke:#038048;stroke-width:1.0;"/><text fill="#000000" font-family="sans-serif" font-size="14" lengthAdjust="spacing" textLength="77" x="27" y="936.2607">maxRows()</text><ellipse cx="18" cy="949.2109" fill="#84BE84" rx="3" ry="3" style="stroke:#038048;stroke-width:1.0;"/><text fill="#000000" font-family="sans-serif" font-size="14" lengthAdjust="spacing" textLength="132" x="27" y="952.5576">dropToken(token)</text><ellipse cx="18" cy="965.5078" fill="#84BE84" rx="3" ry="3" style="stroke:#038048;stroke-width:1.0;"/><text fill="#000000" font-family="sans-serif" font-size="14" lengthAdjust="spacing" textLength="77" x="27" y="968.8545">getBoard()</text></g><!--class BoardView--><g id="elem_BoardView"><rect codeLine="6" fill="#F1F1F1" height="129.4844" id="BoardView" rx="2.5" ry="2.5" style="stroke:#181818;stroke-width:0.5;" width="195" x="197" y="502.5"/><ellipse cx="252.25" cy="518.5" fill="#ADD1B2" rx="11" ry="11" style="stroke:#181818;stroke-width:1.0;"/><path d="M254.5938,514.1719 C253.6563,513.7344 253.0625,513.5938 252.1875,513.5938 C249.5625,513.5938 247.5625,515.6719 247.5625,518.3906 L247.5625,519.5156 C247.5625,522.0938 249.6719,523.9844 252.5625,523.9844 C253.7813,523.9844 254.9375,523.6875 255.6875,523.1406 C256.2656,522.7344 256.5938,522.2813 256.5938,521.8906 C256.5938,521.4375 256.2031,521.0469 255.7344,521.0469 C255.5156,521.0469 255.3125,521.125 255.125,521.3125 C254.6719,521.7969 254.6719,521.7969 254.4844,521.8906 C254.0625,522.1563 253.375,522.2813 252.6094,522.2813 C250.5625,522.2813 249.2656,521.1875 249.2656,519.4844 L249.2656,518.3906 C249.2656,516.6094 250.5156,515.2969 252.25,515.2969 C252.8281,515.2969 253.4375,515.4531 253.9063,515.7031 C254.3906,515.9844 254.5625,516.2031 254.6563,516.6094 C254.7188,517.0156 254.75,517.1406 254.8906,517.2656 C255.0313,517.4063 255.2656,517.5156 255.4844,517.5156 C255.75,517.5156 256.0156,517.375 256.1875,517.1563 C256.2969,517 256.3281,516.8125 256.3281,516.3906 L256.3281,514.9688 C256.3281,514.5313 256.3125,514.4063 256.2188,514.25 C256.0625,513.9844 255.7813,513.8438 255.4844,513.8438 C255.1875,513.8438 254.9844,513.9375 254.7656,514.25 L254.5938,514.1719 Z " fill="#000000"/><text fill="#000000" font-family="sans-serif" font-size="14" lengthAdjust="spacing" textLength="76" x="272.75" y="523.3467">BoardView</text><line style="stroke:#181818;stroke-width:0.5;" x1="198" x2="391" y1="534.5" y2="534.5"/><ellipse cx="208" cy="548.1484" fill="none" rx="3" ry="3" style="stroke:#038048;stroke-width:1.0;"/><text fill="#000000" font-family="sans-serif" font-size="14" lengthAdjust="spacing" textLength="114" x="217" y="551.4951">turn{TurnView}</text><line style="stroke:#181818;stroke-width:0.5;" x1="198" x2="391" y1="558.7969" y2="558.7969"/><rect fill="#F24D5C" height="6" style="stroke:#C82930;stroke-width:1.0;" width="6" x="205" y="569.4453"/><text fill="#000000" font-family="sans-serif" font-size="14" lengthAdjust="spacing" textLength="169" x="217" y="575.792">getValidColumnRange()</text><rect fill="#F24D5C" height="6" style="stroke:#C82930;stroke-width:1.0;" width="6" x="205" y="585.7422"/><text fill="#000000" font-family="sans-serif" font-size="14" lengthAdjust="spacing" textLength="82" x="217" y="592.0889">printError()</text><ellipse cx="208" cy="605.0391" fill="#84BE84" rx="3" ry="3" style="stroke:#038048;stroke-width:1.0;"/><text fill="#000000" font-family="sans-serif" font-size="14" lengthAdjust="spacing" textLength="88" x="217" y="608.3857">printBoard()</text><ellipse cx="208" cy="621.3359" fill="#84BE84" rx="3" ry="3" style="stroke:#038048;stroke-width:1.0;"/><text fill="#000000" font-family="sans-serif" font-size="14" lengthAdjust="spacing" textLength="88" x="217" y="624.6826">askColumn()</text></g><!--class Goal--><g id="elem_Goal"><rect codeLine="7" fill="#F1F1F1" height="145.7813" id="Goal" rx="2.5" ry="2.5" style="stroke:#181818;stroke-width:0.5;" width="189" x="427" y="494"/><ellipse cx="501.25" cy="510" fill="#ADD1B2" rx="11" ry="11" style="stroke:#181818;stroke-width:1.0;"/><path d="M503.5938,505.6719 C502.6563,505.2344 502.0625,505.0938 501.1875,505.0938 C498.5625,505.0938 496.5625,507.1719 496.5625,509.8906 L496.5625,511.0156 C496.5625,513.5938 498.6719,515.4844 501.5625,515.4844 C502.7813,515.4844 503.9375,515.1875 504.6875,514.6406 C505.2656,514.2344 505.5938,513.7813 505.5938,513.3906 C505.5938,512.9375 505.2031,512.5469 504.7344,512.5469 C504.5156,512.5469 504.3125,512.625 504.125,512.8125 C503.6719,513.2969 503.6719,513.2969 503.4844,513.3906 C503.0625,513.6563 502.375,513.7813 501.6094,513.7813 C499.5625,513.7813 498.2656,512.6875 498.2656,510.9844 L498.2656,509.8906 C498.2656,508.1094 499.5156,506.7969 501.25,506.7969 C501.8281,506.7969 502.4375,506.9531 502.9063,507.2031 C503.3906,507.4844 503.5625,507.7031 503.6563,508.1094 C503.7188,508.5156 503.75,508.6406 503.8906,508.7656 C504.0313,508.9063 504.2656,509.0156 504.4844,509.0156 C504.75,509.0156 505.0156,508.875 505.1875,508.6563 C505.2969,508.5 505.3281,508.3125 505.3281,507.8906 L505.3281,506.4688 C505.3281,506.0313 505.3125,505.9063 505.2188,505.75 C505.0625,505.4844 504.7813,505.3438 504.4844,505.3438 C504.1875,505.3438 503.9844,505.4375 503.7656,505.75 L503.5938,505.6719 Z " fill="#000000"/><text fill="#000000" font-family="sans-serif" font-size="14" lengthAdjust="spacing" textLength="32" x="521.75" y="514.8467">Goal</text><line style="stroke:#181818;stroke-width:0.5;" x1="428" x2="615" y1="526" y2="526"/><text fill="#000000" font-family="sans-serif" font-size="14" lengthAdjust="spacing" textLength="177" x="433" y="542.9951">CONNECTIONS_TO_GOAL</text><line style="stroke:#181818;stroke-width:0.5;" x1="428" x2="615" y1="550.2969" y2="550.2969"/><rect fill="#F24D5C" height="6" style="stroke:#C82930;stroke-width:1.0;" width="6" x="435" y="560.9453"/><text fill="#000000" font-family="sans-serif" font-size="14" lengthAdjust="spacing" textLength="83" x="447" y="567.292">horizontal()</text><rect fill="#F24D5C" height="6" style="stroke:#C82930;stroke-width:1.0;" width="6" x="435" y="577.2422"/><text fill="#000000" font-family="sans-serif" font-size="14" lengthAdjust="spacing" textLength="64" x="447" y="583.5889">vertical()</text><rect fill="#F24D5C" height="6" style="stroke:#C82930;stroke-width:1.0;" width="6" x="435" y="593.5391"/><text fill="#000000" font-family="sans-serif" font-size="14" lengthAdjust="spacing" textLength="70" x="447" y="599.8857">diagonal()</text><rect fill="#F24D5C" height="6" style="stroke:#C82930;stroke-width:1.0;" width="6" x="435" y="609.8359"/><text fill="#000000" font-family="sans-serif" font-size="14" lengthAdjust="spacing" textLength="62" x="447" y="616.1826">inverse()</text><ellipse cx="438" cy="629.1328" fill="#84BE84" rx="3" ry="3" style="stroke:#038048;stroke-width:1.0;"/><text fill="#000000" font-family="sans-serif" font-size="14" lengthAdjust="spacing" textLength="92" x="447" y="632.4795">anyAchived()</text></g><!--class Turn--><g id="elem_Turn"><rect codeLine="8" fill="#F1F1F1" height="162.0781" id="Turn" rx="2.5" ry="2.5" style="stroke:#181818;stroke-width:0.5;" width="147" x="62" y="1036"/><ellipse cx="115.25" cy="1052" fill="#ADD1B2" rx="11" ry="11" style="stroke:#181818;stroke-width:1.0;"/><path d="M117.5938,1047.6719 C116.6563,1047.2344 116.0625,1047.0938 115.1875,1047.0938 C112.5625,1047.0938 110.5625,1049.1719 110.5625,1051.8906 L110.5625,1053.0156 C110.5625,1055.5938 112.6719,1057.4844 115.5625,1057.4844 C116.7813,1057.4844 117.9375,1057.1875 118.6875,1056.6406 C119.2656,1056.2344 119.5938,1055.7813 119.5938,1055.3906 C119.5938,1054.9375 119.2031,1054.5469 118.7344,1054.5469 C118.5156,1054.5469 118.3125,1054.625 118.125,1054.8125 C117.6719,1055.2969 117.6719,1055.2969 117.4844,1055.3906 C117.0625,1055.6563 116.375,1055.7813 115.6094,1055.7813 C113.5625,1055.7813 112.2656,1054.6875 112.2656,1052.9844 L112.2656,1051.8906 C112.2656,1050.1094 113.5156,1048.7969 115.25,1048.7969 C115.8281,1048.7969 116.4375,1048.9531 116.9063,1049.2031 C117.3906,1049.4844 117.5625,1049.7031 117.6563,1050.1094 C117.7188,1050.5156 117.75,1050.6406 117.8906,1050.7656 C118.0313,1050.9063 118.2656,1051.0156 118.4844,1051.0156 C118.75,1051.0156 119.0156,1050.875 119.1875,1050.6563 C119.2969,1050.5 119.3281,1050.3125 119.3281,1049.8906 L119.3281,1048.4688 C119.3281,1048.0313 119.3125,1047.9063 119.2188,1047.75 C119.0625,1047.4844 118.7813,1047.3438 118.4844,1047.3438 C118.1875,1047.3438 117.9844,1047.4375 117.7656,1047.75 L117.5938,1047.6719 Z " fill="#000000"/><text fill="#000000" font-family="sans-serif" font-size="14" lengthAdjust="spacing" textLength="32" x="135.75" y="1056.8467">Turn</text><line style="stroke:#181818;stroke-width:0.5;" x1="63" x2="208" y1="1068" y2="1068"/><rect fill="none" height="6" style="stroke:#C82930;stroke-width:1.0;" width="6" x="70" y="1078.6484"/><text fill="#000000" font-family="sans-serif" font-size="14" lengthAdjust="spacing" textLength="103" x="82" y="1084.9951">MAX_PLAYERS</text><rect fill="none" height="6" style="stroke:#C82930;stroke-width:1.0;" width="6" x="70" y="1094.9453"/><text fill="#000000" font-family="sans-serif" font-size="14" lengthAdjust="spacing" textLength="30" x="82" y="1101.292">turn</text><rect fill="none" height="6" style="stroke:#C82930;stroke-width:1.0;" width="6" x="70" y="1111.2422"/><text fill="#000000" font-family="sans-serif" font-size="14" lengthAdjust="spacing" textLength="50" x="82" y="1117.5889">tokens</text><rect fill="none" height="6" style="stroke:#C82930;stroke-width:1.0;" width="6" x="70" y="1127.5391"/><text fill="#000000" font-family="sans-serif" font-size="14" lengthAdjust="spacing" textLength="91" x="82" y="1133.8857">tokensName</text><line style="stroke:#181818;stroke-width:0.5;" x1="63" x2="208" y1="1141.1875" y2="1141.1875"/><ellipse cx="73" cy="1154.8359" fill="#84BE84" rx="3" ry="3" style="stroke:#038048;stroke-width:1.0;"/><text fill="#000000" font-family="sans-serif" font-size="14" lengthAdjust="spacing" textLength="80" x="82" y="1158.1826">getToken()</text><ellipse cx="73" cy="1171.1328" fill="#84BE84" rx="3" ry="3" style="stroke:#038048;stroke-width:1.0;"/><text fill="#000000" font-family="sans-serif" font-size="14" lengthAdjust="spacing" textLength="121" x="82" y="1174.4795">getTokenName()</text><ellipse cx="73" cy="1187.4297" fill="#84BE84" rx="3" ry="3" style="stroke:#038048;stroke-width:1.0;"/><text fill="#000000" font-family="sans-serif" font-size="14" lengthAdjust="spacing" textLength="43" x="82" y="1190.7764">next()</text></g><!--class TurnView--><g id="elem_TurnView"><rect codeLine="9" fill="#F1F1F1" height="64.2969" id="TurnView" rx="2.5" ry="2.5" style="stroke:#181818;stroke-width:0.5;" width="104" x="210.5" y="1258"/><ellipse cx="228.2" cy="1274" fill="#ADD1B2" rx="11" ry="11" style="stroke:#181818;stroke-width:1.0;"/><path d="M230.5438,1269.6719 C229.6063,1269.2344 229.0125,1269.0938 228.1375,1269.0938 C225.5125,1269.0938 223.5125,1271.1719 223.5125,1273.8906 L223.5125,1275.0156 C223.5125,1277.5938 225.6219,1279.4844 228.5125,1279.4844 C229.7313,1279.4844 230.8875,1279.1875 231.6375,1278.6406 C232.2156,1278.2344 232.5438,1277.7813 232.5438,1277.3906 C232.5438,1276.9375 232.1531,1276.5469 231.6844,1276.5469 C231.4656,1276.5469 231.2625,1276.625 231.075,1276.8125 C230.6219,1277.2969 230.6219,1277.2969 230.4344,1277.3906 C230.0125,1277.6563 229.325,1277.7813 228.5594,1277.7813 C226.5125,1277.7813 225.2156,1276.6875 225.2156,1274.9844 L225.2156,1273.8906 C225.2156,1272.1094 226.4656,1270.7969 228.2,1270.7969 C228.7781,1270.7969 229.3875,1270.9531 229.8563,1271.2031 C230.3406,1271.4844 230.5125,1271.7031 230.6063,1272.1094 C230.6688,1272.5156 230.7,1272.6406 230.8406,1272.7656 C230.9813,1272.9063 231.2156,1273.0156 231.4344,1273.0156 C231.7,1273.0156 231.9656,1272.875 232.1375,1272.6563 C232.2469,1272.5 232.2781,1272.3125 232.2781,1271.8906 L232.2781,1270.4688 C232.2781,1270.0313 232.2625,1269.9063 232.1688,1269.75 C232.0125,1269.4844 231.7313,1269.3438 231.4344,1269.3438 C231.1375,1269.3438 230.9344,1269.4375 230.7156,1269.75 L230.5438,1269.6719 Z " fill="#000000"/><text fill="#000000" font-family="sans-serif" font-size="14" lengthAdjust="spacing" textLength="66" x="242.8" y="1278.8467">TurnView</text><line style="stroke:#181818;stroke-width:0.5;" x1="211.5" x2="313.5" y1="1290" y2="1290"/><line style="stroke:#181818;stroke-width:0.5;" x1="211.5" x2="313.5" y1="1298" y2="1298"/><ellipse cx="221.5" cy="1311.6484" fill="#84BE84" rx="3" ry="3" style="stroke:#038048;stroke-width:1.0;"/><text fill="#000000" font-family="sans-serif" font-size="14" lengthAdjust="spacing" textLength="78" x="230.5" y="1314.9951">printTurn()</text></g><!--reverse link Connect4 to Game--><g id="link_Connect4_Game"><path codeLine="11" d="M397.2212,78.4991 C377.2362,94.0491 365.217,107.26 352.5,131 C317.662,196.05 312.867,283.33 313.802,336.654 " fill="none" id="Connect4-backto-Game" style="stroke:#181818;stroke-width:1.0;"/><polygon fill="#181818" points="406.692,71.13,399.5002,71.6576,397.2212,78.4991,404.413,77.9715,406.692,71.13" style="stroke:#181818;stroke-width:1.0;"/></g><!--reverse link Connect4 to YesNoDialog--><g id="link_Connect4_YesNoDialog"><path codeLine="12" d="M500.4228,78.784 C523.7188,98.464 545.506,116.86 573.714,140.68 " fill="none" id="Connect4-backto-YesNoDialog" style="stroke:#181818;stroke-width:1.0;"/><polygon fill="#181818" points="491.256,71.04,493.2581,77.9676,500.4228,78.784,498.4207,71.8564,491.256,71.04" style="stroke:#181818;stroke-width:1.0;"/></g><!--link Connect4 to GameView--><g id="link_Connect4_GameView"><path codeLine="13" d="M454.5,71.04 C454.5,90.35 454.5,109.88 454.5,133.34 " fill="none" id="Connect4-to-GameView" style="stroke:#181818;stroke-width:1.0;stroke-dasharray:7.0,7.0;"/><polygon fill="#181818" points="454.5,139.34,458.5,130.34,454.5,134.34,450.5,130.34,454.5,139.34" style="stroke:#181818;stroke-width:1.0;"/></g><!--link GameView to Game--><g id="link_GameView_Game"><path codeLine="14" d="M405.652,268.54 C388.362,291.03 372.8786,311.1737 356.7786,332.1097 " fill="none" id="GameView-to-Game" style="stroke:#181818;stroke-width:1.0;stroke-dasharray:7.0,7.0;"/><polygon fill="#181818" points="353.121,336.866,361.7782,332.17,356.169,332.9025,355.4366,327.2932,353.121,336.866" style="stroke:#181818;stroke-width:1.0;"/></g><!--link GameView to Goal--><g id="link_GameView_Goal"><path codeLine="15" d="M466.324,268.71 C478.026,331.761 494.8181,422.2337 507.0321,488.0437 " fill="none" id="GameView-to-Goal" style="stroke:#181818;stroke-width:1.0;stroke-dasharray:7.0,7.0;"/><polygon fill="#181818" points="508.127,493.943,510.4175,484.3642,507.2146,489.027,502.5519,485.824,508.127,493.943" style="stroke:#181818;stroke-width:1.0;"/></g><!--link Game to Goal--><g id="link_Game_Goal"><path codeLine="16" d="M370.898,434.131 C391.775,452.411 411.5799,469.7534 434.5089,489.8304 " fill="none" id="Game-to-Goal" style="stroke:#181818;stroke-width:1.0;stroke-dasharray:7.0,7.0;"/><polygon fill="#181818" points="439.023,493.783,434.8869,484.8447,435.2613,490.4892,429.6168,490.8635,439.023,493.783" style="stroke:#181818;stroke-width:1.0;"/></g><!--reverse link Game to Board--><g id="link_Game_Board"><path codeLine="17" d="M240.4739,429.1052 C213.9579,447.0212 195.81,464.499 179.5,494 C145.244,555.964 134.953,633.868 133.797,699.765 " fill="none" id="Game-backto-Board" style="stroke:#181818;stroke-width:1.0;"/><polygon fill="#181818" points="250.417,422.387,243.206,422.4317,240.4739,429.1052,247.6849,429.0605,250.417,422.387" style="stroke:#181818;stroke-width:1.0;"/></g><!--link Game to BoardView--><g id="link_Game_BoardView"><path codeLine="18" d="M310.662,434.131 C308.103,455.008 305.793,473.8606 303.043,496.2966 " fill="none" id="Game-to-BoardView" style="stroke:#181818;stroke-width:1.0;stroke-dasharray:7.0,7.0;"/><polygon fill="#181818" points="302.313,502.252,307.3782,493.8055,302.9213,497.2891,299.4377,492.8322,302.313,502.252" style="stroke:#181818;stroke-width:1.0;"/></g><!--reverse link Board to Turn--><g id="link_Board_Turn"><path codeLine="19" d="M139.1888,988.278 C138.5998,1008.684 138.355,1017.13 137.815,1035.835 " fill="none" id="Board-backto-Turn" style="stroke:#181818;stroke-width:1.0;"/><polygon fill="#181818" points="139.535,976.283,135.3636,982.1651,139.1888,988.278,143.3602,982.3959,139.535,976.283" style="stroke:#181818;stroke-width:1.0;"/></g><!--link BoardView to Board--><g id="link_BoardView_Board"><path codeLine="20" d="M258.715,631.749 C247.159,652.335 236.8059,670.7799 223.4519,694.5699 " fill="none" id="BoardView-to-Board" style="stroke:#181818;stroke-width:1.0;stroke-dasharray:7.0,7.0;"/><polygon fill="#181818" points="220.515,699.802,228.4084,693.9118,222.9624,695.4419,221.4323,689.996,220.515,699.802" style="stroke:#181818;stroke-width:1.0;"/></g><!--reverse link BoardView to TurnView--><g id="link_BoardView_TurnView"><path codeLine="21" d="M296.5262,643.7746 C297.0392,665.4276 297.247,677.767 297.5,700 C298.894,822.659 304.326,853.523 297.5,976 C291.718,1079.729 275.239,1201.899 267.127,1257.9982 " fill="none" id="BoardView-backto-TurnView" style="stroke:#181818;stroke-width:1.0;"/><polygon fill="#181818" points="296.242,631.778,292.3852,637.8711,296.5262,643.7746,300.383,637.6816,296.242,631.778" style="stroke:#181818;stroke-width:1.0;"/></g><!--link Turn to TurnView--><g id="link_Turn_TurnView"><path codeLine="22" d="M195.095,1198.243 C210.82,1219.416 223.2886,1236.2033 235.7776,1253.0195 " fill="none" id="Turn-to-TurnView" style="stroke:#181818;stroke-width:1.0;stroke-dasharray:7.0,7.0;"/><polygon fill="#181818" points="239.355,1257.8364,237.2002,1248.2262,236.3738,1253.8223,230.7777,1252.996,239.355,1257.8364" style="stroke:#181818;stroke-width:1.0;"/></g><!--link TurnView to Board--><g id="link_TurnView_Board"><path codeLine="23" d="M260.643,1257.7071 C257.199,1209.386 248.1,1114.034 226.5,1036 C221.055,1016.328 216.2552,1001.6215 208.7192,981.8525 " fill="none" id="TurnView-to-Board" style="stroke:#181818;stroke-width:1.0;stroke-dasharray:7.0,7.0;"/><polygon fill="#181818" points="206.582,976.246,206.0502,986.0805,208.363,980.918,213.5254,983.2309,206.582,976.246" style="stroke:#181818;stroke-width:1.0;"/></g><!--SRC=[TPJ1Rjim38RlUOeSsmNkQQST1dYP4HHBxC3nsWN34B2swWgLfKnIadP1tdqI7Scoczp8xwT8IgHTCb1gF1MSar9_7fNepg0XWVb0oU7ihebAnNSAJDHdyas0h48xY9u9O6Ups4aUc1WqScN7dwAeBTeZOJ4ltDrzxPfoXgS3OkjRCl1iyhPlBtQjeuKXsBCNkh20kJ0yQGsCwf71sUucNyOJfK7gczlHABYguT7V7L6Q2ZxamDM1o25Li2SnAYPLNvjG5Jy_Kzc0fdjoIKv9VKK3zLg89OFtk0RARPVuMaPvmYSwueLEZaQIg5rZyxYmhJbhZ-6xc815_6kpdCVh95zvfkqRUqUy4gu6Rch7UaQJckZ2KfDsY6nSW3bvqwuuZi0s92dN5hZBz0MgcMk_9pnICp6vKFKbSIwKkYeMb5nHSh7ZLMvUZ6c5tPZbDE8qIzDaMjndwMfJP9jP5i-T5Bq8IVy9he7PX6Uu9rBJieSg2hNWFKIvYLEa8nFWxt7vOkPUsUhjpjloyv-BTENzF7lid2BxaQIRPB4irfxX9lp-u_t8J6Ck3cPxuprG1a-ChBPGafjIi5t3RtsWsRofQBQCQEp0OwWg77iX48LIc-AUvy1hyb6ucAw1jocgQa1pSUYXIefjkrbOFb3CZJwqOhTsVBIRT1e5VuFs_W_0QDLMxRNgGd3-YPH23fHsCth5d6A-nJRZKB2T7DsEd_u3]--></g></svg>