<?xml version="1.0" encoding="us-ascii" standalone="no"?><svg xmlns="http://www.w3.org/2000/svg" xmlns:xlink="http://www.w3.org/1999/xlink" contentStyleType="text/css" height="695px" preserveAspectRatio="none" style="width:777px;height:695px;background:#FFFFFF;" version="1.1" viewBox="0 0 777 695" width="777px" zoomAndPan="magnify"><defs/><g><!--class Connect4--><g id="elem_Connect4"><rect codeLine="1" fill="#F1F1F1" height="48" id="Connect4" rx="2.5" ry="2.5" style="stroke:#181818;stroke-width:0.5;" width="101" x="470" y="7"/><ellipse cx="485" cy="23" fill="#ADD1B2" rx="11" ry="11" style="stroke:#181818;stroke-width:1.0;"/><path d="M487.3438,18.6719 C486.4063,18.2344 485.8125,18.0938 484.9375,18.0938 C482.3125,18.0938 480.3125,20.1719 480.3125,22.8906 L480.3125,24.0156 C480.3125,26.5938 482.4219,28.4844 485.3125,28.4844 C486.5313,28.4844 487.6875,28.1875 488.4375,27.6406 C489.0156,27.2344 489.3438,26.7813 489.3438,26.3906 C489.3438,25.9375 488.9531,25.5469 488.4844,25.5469 C488.2656,25.5469 488.0625,25.625 487.875,25.8125 C487.4219,26.2969 487.4219,26.2969 487.2344,26.3906 C486.8125,26.6563 486.125,26.7813 485.3594,26.7813 C483.3125,26.7813 482.0156,25.6875 482.0156,23.9844 L482.0156,22.8906 C482.0156,21.1094 483.2656,19.7969 485,19.7969 C485.5781,19.7969 486.1875,19.9531 486.6563,20.2031 C487.1406,20.4844 487.3125,20.7031 487.4063,21.1094 C487.4688,21.5156 487.5,21.6406 487.6406,21.7656 C487.7813,21.9063 488.0156,22.0156 488.2344,22.0156 C488.5,22.0156 488.7656,21.875 488.9375,21.6563 C489.0469,21.5 489.0781,21.3125 489.0781,20.8906 L489.0781,19.4688 C489.0781,19.0313 489.0625,18.9063 488.9688,18.75 C488.8125,18.4844 488.5313,18.3438 488.2344,18.3438 C487.9375,18.3438 487.7344,18.4375 487.5156,18.75 L487.3438,18.6719 Z " fill="#000000"/><text fill="#000000" font-family="sans-serif" font-size="14" lengthAdjust="spacing" textLength="69" x="499" y="27.8467">Connect4</text><line style="stroke:#181818;stroke-width:0.5;" x1="471" x2="570" y1="39" y2="39"/><line style="stroke:#181818;stroke-width:0.5;" x1="471" x2="570" y1="47" y2="47"/></g><!--class Game--><g id="elem_Game"><rect codeLine="2" fill="#F1F1F1" height="80.5938" id="Game" rx="2.5" ry="2.5" style="stroke:#181818;stroke-width:0.5;" width="89" x="400" y="147.5"/><ellipse cx="421.75" cy="163.5" fill="#ADD1B2" rx="11" ry="11" style="stroke:#181818;stroke-width:1.0;"/><path d="M424.0938,159.1719 C423.1563,158.7344 422.5625,158.5938 421.6875,158.5938 C419.0625,158.5938 417.0625,160.6719 417.0625,163.3906 L417.0625,164.5156 C417.0625,167.0938 419.1719,168.9844 422.0625,168.9844 C423.2813,168.9844 424.4375,168.6875 425.1875,168.1406 C425.7656,167.7344 426.0938,167.2813 426.0938,166.8906 C426.0938,166.4375 425.7031,166.0469 425.2344,166.0469 C425.0156,166.0469 424.8125,166.125 424.625,166.3125 C424.1719,166.7969 424.1719,166.7969 423.9844,166.8906 C423.5625,167.1563 422.875,167.2813 422.1094,167.2813 C420.0625,167.2813 418.7656,166.1875 418.7656,164.4844 L418.7656,163.3906 C418.7656,161.6094 420.0156,160.2969 421.75,160.2969 C422.3281,160.2969 422.9375,160.4531 423.4063,160.7031 C423.8906,160.9844 424.0625,161.2031 424.1563,161.6094 C424.2188,162.0156 424.25,162.1406 424.3906,162.2656 C424.5313,162.4063 424.7656,162.5156 424.9844,162.5156 C425.25,162.5156 425.5156,162.375 425.6875,162.1563 C425.7969,162 425.8281,161.8125 425.8281,161.3906 L425.8281,159.9688 C425.8281,159.5313 425.8125,159.4063 425.7188,159.25 C425.5625,158.9844 425.2813,158.8438 424.9844,158.8438 C424.6875,158.8438 424.4844,158.9375 424.2656,159.25 L424.0938,159.1719 Z " fill="#000000"/><text fill="#000000" font-family="sans-serif" font-size="14" lengthAdjust="spacing" textLength="42" x="437.25" y="168.3467">Game</text><line style="stroke:#181818;stroke-width:0.5;" x1="401" x2="488" y1="179.5" y2="179.5"/><line style="stroke:#181818;stroke-width:0.5;" x1="401" x2="488" y1="187.5" y2="187.5"/><rect fill="#F24D5C" height="6" style="stroke:#C82930;stroke-width:1.0;" width="6" x="408" y="198.1484"/><text fill="#000000" font-family="sans-serif" font-size="14" lengthAdjust="spacing" textLength="63" x="420" y="204.4951">resume()</text><ellipse cx="411" cy="217.4453" fill="#84BE84" rx="3" ry="3" style="stroke:#038048;stroke-width:1.0;"/><text fill="#000000" font-family="sans-serif" font-size="14" lengthAdjust="spacing" textLength="40" x="420" y="220.792">play()</text></g><!--class GameView--><g id="elem_GameView"><rect codeLine="3" fill="#F1F1F1" height="113.1875" id="GameView" rx="2.5" ry="2.5" style="stroke:#181818;stroke-width:0.5;" width="151" x="7" y="370"/><ellipse cx="41.35" cy="386" fill="#ADD1B2" rx="11" ry="11" style="stroke:#181818;stroke-width:1.0;"/><path d="M43.6938,381.6719 C42.7563,381.2344 42.1625,381.0938 41.2875,381.0938 C38.6625,381.0938 36.6625,383.1719 36.6625,385.8906 L36.6625,387.0156 C36.6625,389.5938 38.7719,391.4844 41.6625,391.4844 C42.8813,391.4844 44.0375,391.1875 44.7875,390.6406 C45.3656,390.2344 45.6938,389.7813 45.6938,389.3906 C45.6938,388.9375 45.3031,388.5469 44.8344,388.5469 C44.6156,388.5469 44.4125,388.625 44.225,388.8125 C43.7719,389.2969 43.7719,389.2969 43.5844,389.3906 C43.1625,389.6563 42.475,389.7813 41.7094,389.7813 C39.6625,389.7813 38.3656,388.6875 38.3656,386.9844 L38.3656,385.8906 C38.3656,384.1094 39.6156,382.7969 41.35,382.7969 C41.9281,382.7969 42.5375,382.9531 43.0063,383.2031 C43.4906,383.4844 43.6625,383.7031 43.7563,384.1094 C43.8188,384.5156 43.85,384.6406 43.9906,384.7656 C44.1313,384.9063 44.3656,385.0156 44.5844,385.0156 C44.85,385.0156 45.1156,384.875 45.2875,384.6563 C45.3969,384.5 45.4281,384.3125 45.4281,383.8906 L45.4281,382.4688 C45.4281,382.0313 45.4125,381.9063 45.3188,381.75 C45.1625,381.4844 44.8813,381.3438 44.5844,381.3438 C44.2875,381.3438 44.0844,381.4375 43.8656,381.75 L43.6938,381.6719 Z " fill="#000000"/><text fill="#000000" font-family="sans-serif" font-size="14" lengthAdjust="spacing" textLength="76" x="59.65" y="390.8467">GameView</text><line style="stroke:#181818;stroke-width:0.5;" x1="8" x2="157" y1="402" y2="402"/><line style="stroke:#181818;stroke-width:0.5;" x1="8" x2="157" y1="410" y2="410"/><ellipse cx="18" cy="423.6484" fill="#84BE84" rx="3" ry="3" style="stroke:#038048;stroke-width:1.0;"/><text fill="#000000" font-family="sans-serif" font-size="14" lengthAdjust="spacing" textLength="79" x="27" y="426.9951">printTitle()</text><ellipse cx="18" cy="439.9453" fill="#84BE84" rx="3" ry="3" style="stroke:#038048;stroke-width:1.0;"/><text fill="#000000" font-family="sans-serif" font-size="14" lengthAdjust="spacing" textLength="125" x="27" y="443.292">printWinnerMsg()</text><ellipse cx="18" cy="456.2422" fill="#84BE84" rx="3" ry="3" style="stroke:#038048;stroke-width:1.0;"/><text fill="#000000" font-family="sans-serif" font-size="14" lengthAdjust="spacing" textLength="120" x="27" y="459.5889">printLosserMsg()</text><ellipse cx="18" cy="472.5391" fill="#84BE84" rx="3" ry="3" style="stroke:#038048;stroke-width:1.0;"/><text fill="#000000" font-family="sans-serif" font-size="14" lengthAdjust="spacing" textLength="96" x="27" y="475.8857">printTieMsg()</text></g><!--class YesNoDialog--><g id="elem_YesNoDialog"><rect codeLine="4" fill="#F1F1F1" height="145.7813" id="YesNoDialog" rx="2.5" ry="2.5" style="stroke:#181818;stroke-width:0.5;" width="147" x="524" y="115"/><ellipse cx="550.7" cy="131" fill="#ADD1B2" rx="11" ry="11" style="stroke:#181818;stroke-width:1.0;"/><path d="M553.0438,126.6719 C552.1063,126.2344 551.5125,126.0938 550.6375,126.0938 C548.0125,126.0938 546.0125,128.1719 546.0125,130.8906 L546.0125,132.0156 C546.0125,134.5938 548.1219,136.4844 551.0125,136.4844 C552.2313,136.4844 553.3875,136.1875 554.1375,135.6406 C554.7156,135.2344 555.0438,134.7813 555.0438,134.3906 C555.0438,133.9375 554.6531,133.5469 554.1844,133.5469 C553.9656,133.5469 553.7625,133.625 553.575,133.8125 C553.1219,134.2969 553.1219,134.2969 552.9344,134.3906 C552.5125,134.6563 551.825,134.7813 551.0594,134.7813 C549.0125,134.7813 547.7156,133.6875 547.7156,131.9844 L547.7156,130.8906 C547.7156,129.1094 548.9656,127.7969 550.7,127.7969 C551.2781,127.7969 551.8875,127.9531 552.3563,128.2031 C552.8406,128.4844 553.0125,128.7031 553.1063,129.1094 C553.1688,129.5156 553.2,129.6406 553.3406,129.7656 C553.4813,129.9063 553.7156,130.0156 553.9344,130.0156 C554.2,130.0156 554.4656,129.875 554.6375,129.6563 C554.7469,129.5 554.7781,129.3125 554.7781,128.8906 L554.7781,127.4688 C554.7781,127.0313 554.7625,126.9063 554.6688,126.75 C554.5125,126.4844 554.2313,126.3438 553.9344,126.3438 C553.6375,126.3438 553.4344,126.4375 553.2156,126.75 L553.0438,126.6719 Z " fill="#000000"/><text fill="#000000" font-family="sans-serif" font-size="14" lengthAdjust="spacing" textLength="89" x="567.3" y="135.8467">YesNoDialog</text><line style="stroke:#181818;stroke-width:0.5;" x1="525" x2="670" y1="147" y2="147"/><rect fill="none" height="6" style="stroke:#C82930;stroke-width:1.0;" width="6" x="532" y="157.6484"/><text fill="#000000" font-family="sans-serif" font-size="14" lengthAdjust="spacing" textLength="62" x="544" y="163.9951">question</text><rect fill="none" height="6" style="stroke:#C82930;stroke-width:1.0;" width="6" x="532" y="173.9453"/><text fill="#000000" font-family="sans-serif" font-size="14" lengthAdjust="spacing" textLength="50" x="544" y="180.292">answer</text><line style="stroke:#181818;stroke-width:0.5;" x1="525" x2="670" y1="187.5938" y2="187.5938"/><rect fill="#F24D5C" height="6" style="stroke:#C82930;stroke-width:1.0;" width="6" x="532" y="198.2422"/><text fill="#000000" font-family="sans-serif" font-size="14" lengthAdjust="spacing" textLength="94" x="544" y="204.5889">saveAnswer()</text><ellipse cx="535" cy="217.5391" fill="#84BE84" rx="3" ry="3" style="stroke:#038048;stroke-width:1.0;"/><text fill="#000000" font-family="sans-serif" font-size="14" lengthAdjust="spacing" textLength="103" x="544" y="220.8857">isAffirmative()</text><ellipse cx="535" cy="233.8359" fill="#84BE84" rx="3" ry="3" style="stroke:#038048;stroke-width:1.0;"/><text fill="#000000" font-family="sans-serif" font-size="14" lengthAdjust="spacing" textLength="85" x="544" y="237.1826">isNegative()</text><ellipse cx="535" cy="250.1328" fill="#84BE84" rx="3" ry="3" style="stroke:#038048;stroke-width:1.0;"/><text fill="#000000" font-family="sans-serif" font-size="14" lengthAdjust="spacing" textLength="121" x="544" y="253.4795">askToPlayAgain()</text></g><!--class Board--><g id="elem_Board"><rect codeLine="5" fill="#F1F1F1" height="210.9688" id="Board" rx="2.5" ry="2.5" style="stroke:#181818;stroke-width:0.5;" width="273" x="193" y="321"/><ellipse cx="304.25" cy="337" fill="#ADD1B2" rx="11" ry="11" style="stroke:#181818;stroke-width:1.0;"/><path d="M306.5938,332.6719 C305.6563,332.2344 305.0625,332.0938 304.1875,332.0938 C301.5625,332.0938 299.5625,334.1719 299.5625,336.8906 L299.5625,338.0156 C299.5625,340.5938 301.6719,342.4844 304.5625,342.4844 C305.7813,342.4844 306.9375,342.1875 307.6875,341.6406 C308.2656,341.2344 308.5938,340.7813 308.5938,340.3906 C308.5938,339.9375 308.2031,339.5469 307.7344,339.5469 C307.5156,339.5469 307.3125,339.625 307.125,339.8125 C306.6719,340.2969 306.6719,340.2969 306.4844,340.3906 C306.0625,340.6563 305.375,340.7813 304.6094,340.7813 C302.5625,340.7813 301.2656,339.6875 301.2656,337.9844 L301.2656,336.8906 C301.2656,335.1094 302.5156,333.7969 304.25,333.7969 C304.8281,333.7969 305.4375,333.9531 305.9063,334.2031 C306.3906,334.4844 306.5625,334.7031 306.6563,335.1094 C306.7188,335.5156 306.75,335.6406 306.8906,335.7656 C307.0313,335.9063 307.2656,336.0156 307.4844,336.0156 C307.75,336.0156 308.0156,335.875 308.1875,335.6563 C308.2969,335.5 308.3281,335.3125 308.3281,334.8906 L308.3281,333.4688 C308.3281,333.0313 308.3125,332.9063 308.2188,332.75 C308.0625,332.4844 307.7813,332.3438 307.4844,332.3438 C307.1875,332.3438 306.9844,332.4375 306.7656,332.75 L306.5938,332.6719 Z " fill="#000000"/><text fill="#000000" font-family="sans-serif" font-size="14" lengthAdjust="spacing" textLength="42" x="324.75" y="341.8467">Board</text><line style="stroke:#181818;stroke-width:0.5;" x1="194" x2="465" y1="353" y2="353"/><text fill="#000000" font-family="sans-serif" font-size="14" lengthAdjust="spacing" textLength="69" x="199" y="369.9951">COLUMNS</text><text fill="#000000" font-family="sans-serif" font-size="14" lengthAdjust="spacing" textLength="44" x="199" y="386.292">ROWS</text><text fill="#000000" font-family="sans-serif" font-size="14" lengthAdjust="spacing" textLength="52" x="199" y="402.5889">board[]</text><line style="stroke:#181818;stroke-width:0.5;" x1="194" x2="465" y1="409.8906" y2="409.8906"/><rect fill="#F24D5C" height="6" style="stroke:#C82930;stroke-width:1.0;" width="6" x="201" y="420.5391"/><text fill="#000000" font-family="sans-serif" font-size="14" lengthAdjust="spacing" textLength="120" x="213" y="426.8857">columnInRange()</text><rect fill="#F24D5C" height="6" style="stroke:#C82930;stroke-width:1.0;" width="6" x="201" y="436.8359"/><text fill="#000000" font-family="sans-serif" font-size="14" lengthAdjust="spacing" textLength="143" x="213" y="443.1826">columnCompleted()</text><rect fill="#F24D5C" height="6" style="stroke:#C82930;stroke-width:1.0;" width="6" x="201" y="453.1328"/><text fill="#000000" font-family="sans-serif" font-size="14" lengthAdjust="spacing" textLength="247" x="213" y="459.4795">getLowestAvailableSpace(column)</text><rect fill="#F24D5C" height="6" style="stroke:#C82930;stroke-width:1.0;" width="6" x="201" y="469.4297"/><text fill="#000000" font-family="sans-serif" font-size="14" lengthAdjust="spacing" textLength="139" x="213" y="475.7764">addtokenToBoard()</text><ellipse cx="204" cy="488.7266" fill="#84BE84" rx="3" ry="3" style="stroke:#038048;stroke-width:1.0;"/><text fill="#000000" font-family="sans-serif" font-size="14" lengthAdjust="spacing" textLength="102" x="213" y="492.0732">isCompleted()</text><ellipse cx="204" cy="505.0234" fill="#84BE84" rx="3" ry="3" style="stroke:#038048;stroke-width:1.0;"/><text fill="#000000" font-family="sans-serif" font-size="14" lengthAdjust="spacing" textLength="132" x="213" y="508.3701">dropToken(token)</text><ellipse cx="204" cy="521.3203" fill="#84BE84" rx="3" ry="3" style="stroke:#038048;stroke-width:1.0;"/><text fill="#000000" font-family="sans-serif" font-size="14" lengthAdjust="spacing" textLength="88" x="213" y="524.667">printBoard()</text></g><!--class BoardView--><g id="elem_BoardView"><rect codeLine="6" fill="#F1F1F1" height="96.8906" id="BoardView" rx="2.5" ry="2.5" style="stroke:#181818;stroke-width:0.5;" width="114" x="272.5" y="592"/><ellipse cx="290.2" cy="608" fill="#ADD1B2" rx="11" ry="11" style="stroke:#181818;stroke-width:1.0;"/><path d="M292.5438,603.6719 C291.6063,603.2344 291.0125,603.0938 290.1375,603.0938 C287.5125,603.0938 285.5125,605.1719 285.5125,607.8906 L285.5125,609.0156 C285.5125,611.5938 287.6219,613.4844 290.5125,613.4844 C291.7313,613.4844 292.8875,613.1875 293.6375,612.6406 C294.2156,612.2344 294.5438,611.7813 294.5438,611.3906 C294.5438,610.9375 294.1531,610.5469 293.6844,610.5469 C293.4656,610.5469 293.2625,610.625 293.075,610.8125 C292.6219,611.2969 292.6219,611.2969 292.4344,611.3906 C292.0125,611.6563 291.325,611.7813 290.5594,611.7813 C288.5125,611.7813 287.2156,610.6875 287.2156,608.9844 L287.2156,607.8906 C287.2156,606.1094 288.4656,604.7969 290.2,604.7969 C290.7781,604.7969 291.3875,604.9531 291.8563,605.2031 C292.3406,605.4844 292.5125,605.7031 292.6063,606.1094 C292.6688,606.5156 292.7,606.6406 292.8406,606.7656 C292.9813,606.9063 293.2156,607.0156 293.4344,607.0156 C293.7,607.0156 293.9656,606.875 294.1375,606.6563 C294.2469,606.5 294.2781,606.3125 294.2781,605.8906 L294.2781,604.4688 C294.2781,604.0313 294.2625,603.9063 294.1688,603.75 C294.0125,603.4844 293.7313,603.3438 293.4344,603.3438 C293.1375,603.3438 292.9344,603.4375 292.7156,603.75 L292.5438,603.6719 Z " fill="#000000"/><text fill="#000000" font-family="sans-serif" font-size="14" lengthAdjust="spacing" textLength="76" x="304.8" y="612.8467">BoardView</text><line style="stroke:#181818;stroke-width:0.5;" x1="273.5" x2="385.5" y1="624" y2="624"/><line style="stroke:#181818;stroke-width:0.5;" x1="273.5" x2="385.5" y1="632" y2="632"/><ellipse cx="283.5" cy="645.6484" fill="#84BE84" rx="3" ry="3" style="stroke:#038048;stroke-width:1.0;"/><text fill="#000000" font-family="sans-serif" font-size="14" lengthAdjust="spacing" textLength="88" x="292.5" y="648.9951">printBoard()</text><ellipse cx="283.5" cy="661.9453" fill="#84BE84" rx="3" ry="3" style="stroke:#038048;stroke-width:1.0;"/><text fill="#000000" font-family="sans-serif" font-size="14" lengthAdjust="spacing" textLength="88" x="292.5" y="665.292">askColumn()</text><ellipse cx="283.5" cy="678.2422" fill="#84BE84" rx="3" ry="3" style="stroke:#038048;stroke-width:1.0;"/><text fill="#000000" font-family="sans-serif" font-size="14" lengthAdjust="spacing" textLength="82" x="292.5" y="681.5889">printError()</text></g><!--class Goal--><g id="elem_Goal"><rect codeLine="7" fill="#F1F1F1" height="129.4844" id="Goal" rx="2.5" ry="2.5" style="stroke:#181818;stroke-width:0.5;" width="118" x="501.5" y="362"/><ellipse cx="540.8" cy="378" fill="#ADD1B2" rx="11" ry="11" style="stroke:#181818;stroke-width:1.0;"/><path d="M543.1438,373.6719 C542.2063,373.2344 541.6125,373.0938 540.7375,373.0938 C538.1125,373.0938 536.1125,375.1719 536.1125,377.8906 L536.1125,379.0156 C536.1125,381.5938 538.2219,383.4844 541.1125,383.4844 C542.3313,383.4844 543.4875,383.1875 544.2375,382.6406 C544.8156,382.2344 545.1438,381.7813 545.1438,381.3906 C545.1438,380.9375 544.7531,380.5469 544.2844,380.5469 C544.0656,380.5469 543.8625,380.625 543.675,380.8125 C543.2219,381.2969 543.2219,381.2969 543.0344,381.3906 C542.6125,381.6563 541.925,381.7813 541.1594,381.7813 C539.1125,381.7813 537.8156,380.6875 537.8156,378.9844 L537.8156,377.8906 C537.8156,376.1094 539.0656,374.7969 540.8,374.7969 C541.3781,374.7969 541.9875,374.9531 542.4563,375.2031 C542.9406,375.4844 543.1125,375.7031 543.2063,376.1094 C543.2688,376.5156 543.3,376.6406 543.4406,376.7656 C543.5813,376.9063 543.8156,377.0156 544.0344,377.0156 C544.3,377.0156 544.5656,376.875 544.7375,376.6563 C544.8469,376.5 544.8781,376.3125 544.8781,375.8906 L544.8781,374.4688 C544.8781,374.0313 544.8625,373.9063 544.7688,373.75 C544.6125,373.4844 544.3313,373.3438 544.0344,373.3438 C543.7375,373.3438 543.5344,373.4375 543.3156,373.75 L543.1438,373.6719 Z " fill="#000000"/><text fill="#000000" font-family="sans-serif" font-size="14" lengthAdjust="spacing" textLength="32" x="560.2" y="382.8467">Goal</text><line style="stroke:#181818;stroke-width:0.5;" x1="502.5" x2="618.5" y1="394" y2="394"/><line style="stroke:#181818;stroke-width:0.5;" x1="502.5" x2="618.5" y1="402" y2="402"/><rect fill="#F24D5C" height="6" style="stroke:#C82930;stroke-width:1.0;" width="6" x="509.5" y="412.6484"/><text fill="#000000" font-family="sans-serif" font-size="14" lengthAdjust="spacing" textLength="83" x="521.5" y="418.9951">horizontal()</text><rect fill="#F24D5C" height="6" style="stroke:#C82930;stroke-width:1.0;" width="6" x="509.5" y="428.9453"/><text fill="#000000" font-family="sans-serif" font-size="14" lengthAdjust="spacing" textLength="64" x="521.5" y="435.292">vertical()</text><rect fill="#F24D5C" height="6" style="stroke:#C82930;stroke-width:1.0;" width="6" x="509.5" y="445.2422"/><text fill="#000000" font-family="sans-serif" font-size="14" lengthAdjust="spacing" textLength="70" x="521.5" y="451.5889">diagonal()</text><rect fill="#F24D5C" height="6" style="stroke:#C82930;stroke-width:1.0;" width="6" x="509.5" y="461.5391"/><text fill="#000000" font-family="sans-serif" font-size="14" lengthAdjust="spacing" textLength="62" x="521.5" y="467.8857">inverse()</text><ellipse cx="512.5" cy="480.8359" fill="#84BE84" rx="3" ry="3" style="stroke:#038048;stroke-width:1.0;"/><text fill="#000000" font-family="sans-serif" font-size="14" lengthAdjust="spacing" textLength="92" x="521.5" y="484.1826">anyAchived()</text></g><!--class Turn--><g id="elem_Turn"><rect codeLine="8" fill="#F1F1F1" height="113.1875" id="Turn" rx="2.5" ry="2.5" style="stroke:#181818;stroke-width:0.5;" width="115" x="655" y="370"/><ellipse cx="692.95" cy="386" fill="#ADD1B2" rx="11" ry="11" style="stroke:#181818;stroke-width:1.0;"/><path d="M695.2938,381.6719 C694.3563,381.2344 693.7625,381.0938 692.8875,381.0938 C690.2625,381.0938 688.2625,383.1719 688.2625,385.8906 L688.2625,387.0156 C688.2625,389.5938 690.3719,391.4844 693.2625,391.4844 C694.4813,391.4844 695.6375,391.1875 696.3875,390.6406 C696.9656,390.2344 697.2938,389.7813 697.2938,389.3906 C697.2938,388.9375 696.9031,388.5469 696.4344,388.5469 C696.2156,388.5469 696.0125,388.625 695.825,388.8125 C695.3719,389.2969 695.3719,389.2969 695.1844,389.3906 C694.7625,389.6563 694.075,389.7813 693.3094,389.7813 C691.2625,389.7813 689.9656,388.6875 689.9656,386.9844 L689.9656,385.8906 C689.9656,384.1094 691.2156,382.7969 692.95,382.7969 C693.5281,382.7969 694.1375,382.9531 694.6063,383.2031 C695.0906,383.4844 695.2625,383.7031 695.3563,384.1094 C695.4188,384.5156 695.45,384.6406 695.5906,384.7656 C695.7313,384.9063 695.9656,385.0156 696.1844,385.0156 C696.45,385.0156 696.7156,384.875 696.8875,384.6563 C696.9969,384.5 697.0281,384.3125 697.0281,383.8906 L697.0281,382.4688 C697.0281,382.0313 697.0125,381.9063 696.9188,381.75 C696.7625,381.4844 696.4813,381.3438 696.1844,381.3438 C695.8875,381.3438 695.6844,381.4375 695.4656,381.75 L695.2938,381.6719 Z " fill="#000000"/><text fill="#000000" font-family="sans-serif" font-size="14" lengthAdjust="spacing" textLength="32" x="712.05" y="390.8467">Turn</text><line style="stroke:#181818;stroke-width:0.5;" x1="656" x2="769" y1="402" y2="402"/><text fill="#000000" font-family="sans-serif" font-size="14" lengthAdjust="spacing" textLength="103" x="661" y="418.9951">MAX_PLAYERS</text><text fill="#000000" font-family="sans-serif" font-size="14" lengthAdjust="spacing" textLength="30" x="661" y="435.292">turn</text><line style="stroke:#181818;stroke-width:0.5;" x1="656" x2="769" y1="442.5938" y2="442.5938"/><ellipse cx="666" cy="456.2422" fill="#84BE84" rx="3" ry="3" style="stroke:#038048;stroke-width:1.0;"/><text fill="#000000" font-family="sans-serif" font-size="14" lengthAdjust="spacing" textLength="80" x="675" y="459.5889">getToken()</text><ellipse cx="666" cy="472.5391" fill="#84BE84" rx="3" ry="3" style="stroke:#038048;stroke-width:1.0;"/><text fill="#000000" font-family="sans-serif" font-size="14" lengthAdjust="spacing" textLength="43" x="675" y="475.8857">next()</text></g><!--class TurnView--><g id="elem_TurnView"><rect codeLine="9" fill="#F1F1F1" height="64.2969" id="TurnView" rx="2.5" ry="2.5" style="stroke:#181818;stroke-width:0.5;" width="104" x="660.5" y="608.5"/><ellipse cx="678.2" cy="624.5" fill="#ADD1B2" rx="11" ry="11" style="stroke:#181818;stroke-width:1.0;"/><path d="M680.5438,620.1719 C679.6063,619.7344 679.0125,619.5938 678.1375,619.5938 C675.5125,619.5938 673.5125,621.6719 673.5125,624.3906 L673.5125,625.5156 C673.5125,628.0938 675.6219,629.9844 678.5125,629.9844 C679.7313,629.9844 680.8875,629.6875 681.6375,629.1406 C682.2156,628.7344 682.5438,628.2813 682.5438,627.8906 C682.5438,627.4375 682.1531,627.0469 681.6844,627.0469 C681.4656,627.0469 681.2625,627.125 681.075,627.3125 C680.6219,627.7969 680.6219,627.7969 680.4344,627.8906 C680.0125,628.1563 679.325,628.2813 678.5594,628.2813 C676.5125,628.2813 675.2156,627.1875 675.2156,625.4844 L675.2156,624.3906 C675.2156,622.6094 676.4656,621.2969 678.2,621.2969 C678.7781,621.2969 679.3875,621.4531 679.8563,621.7031 C680.3406,621.9844 680.5125,622.2031 680.6063,622.6094 C680.6688,623.0156 680.7,623.1406 680.8406,623.2656 C680.9813,623.4063 681.2156,623.5156 681.4344,623.5156 C681.7,623.5156 681.9656,623.375 682.1375,623.1563 C682.2469,623 682.2781,622.8125 682.2781,622.3906 L682.2781,620.9688 C682.2781,620.5313 682.2625,620.4063 682.1688,620.25 C682.0125,619.9844 681.7313,619.8438 681.4344,619.8438 C681.1375,619.8438 680.9344,619.9375 680.7156,620.25 L680.5438,620.1719 Z " fill="#000000"/><text fill="#000000" font-family="sans-serif" font-size="14" lengthAdjust="spacing" textLength="66" x="692.8" y="629.3467">TurnView</text><line style="stroke:#181818;stroke-width:0.5;" x1="661.5" x2="763.5" y1="640.5" y2="640.5"/><line style="stroke:#181818;stroke-width:0.5;" x1="661.5" x2="763.5" y1="648.5" y2="648.5"/><ellipse cx="671.5" cy="662.1484" fill="#84BE84" rx="3" ry="3" style="stroke:#038048;stroke-width:1.0;"/><text fill="#000000" font-family="sans-serif" font-size="14" lengthAdjust="spacing" textLength="78" x="680.5" y="665.4951">printTurn()</text></g><!--link Connect4 to Game--><g id="link_Connect4_Game"><path codeLine="11" d="M509.122,55.205 C497.196,79.527 480.8815,112.8008 466.5775,141.9728 " fill="none" id="Connect4-to-Game" style="stroke:#181818;stroke-width:1.0;stroke-dasharray:7.0,7.0;"/><polygon fill="#181818" points="463.936,147.36,471.4898,141.0402,466.1373,142.8706,464.3068,137.5181,463.936,147.36" style="stroke:#181818;stroke-width:1.0;"/></g><!--reverse link Connect4 to YesNoDialog--><g id="link_Connect4_YesNoDialog"><path codeLine="12" d="M537.3665,65.9521 C545.2955,81.9141 550.954,93.303 561.673,114.881 " fill="none" id="Connect4-backto-YesNoDialog" style="stroke:#181818;stroke-width:1.0;"/><polygon fill="#181818" points="532.028,55.205,531.1149,62.3581,537.3665,65.9521,538.2796,58.799,532.028,55.205" style="stroke:#181818;stroke-width:1.0;"/></g><!--link Game to GameView--><g id="link_Game_GameView"><path codeLine="13" d="M399.63,204.822 C343.681,225.883 246.737,266.859 175.5,321 C157.228,334.887 143.7018,348.2262 128.9508,365.2522 " fill="none" id="Game-to-GameView" style="stroke:#181818;stroke-width:1.0;stroke-dasharray:7.0,7.0;"/><polygon fill="#181818" points="125.022,369.787,133.9384,365.6041,128.296,366.008,127.8921,360.3656,125.022,369.787" style="stroke:#181818;stroke-width:1.0;"/></g><!--link Game to Goal--><g id="link_Game_Goal"><path codeLine="14" d="M463.916,228.585 C481.717,264.878 505.7498,313.8761 526.5598,356.3031 " fill="none" id="Game-to-Goal" style="stroke:#181818;stroke-width:1.0;stroke-dasharray:7.0,7.0;"/><polygon fill="#181818" points="529.202,361.69,528.8299,351.8482,527.0002,357.2009,521.6474,355.3711,529.202,361.69" style="stroke:#181818;stroke-width:1.0;"/></g><!--link Board to BoardView--><g id="link_Board_BoardView"><path codeLine="15" d="M329.5,532.258 C329.5,553.121 329.5,568.049 329.5,585.8075 " fill="none" id="Board-to-BoardView" style="stroke:#181818;stroke-width:1.0;stroke-dasharray:7.0,7.0;"/><polygon fill="#181818" points="329.5,591.8075,333.5,582.8075,329.5,586.8075,325.5,582.8075,329.5,591.8075" style="stroke:#181818;stroke-width:1.0;"/></g><!--reverse link Game to Board--><g id="link_Game_Board"><path codeLine="16" d="M420.0041,239.3767 C407.6631,264.7547 396.268,288.189 380.321,320.986 " fill="none" id="Game-backto-Board" style="stroke:#181818;stroke-width:1.0;"/><polygon fill="#181818" points="425.252,228.585,419.0309,232.2315,420.0041,239.3767,426.2253,235.7301,425.252,228.585" style="stroke:#181818;stroke-width:1.0;"/></g><!--reverse link Game to Turn--><g id="link_Game_Turn"><path codeLine="17" d="M481.0301,237.7357 C490.6821,249.1937 494.37,251.88 506.5,261 C557.685,299.484 588.065,280.292 637.5,321 C653.963,334.557 668.58,352.542 680.438,369.764 " fill="none" id="Game-backto-Turn" style="stroke:#181818;stroke-width:1.0;"/><polygon fill="#181818" points="473.299,228.558,474.1053,235.7239,481.0301,237.7357,480.2238,230.5698,473.299,228.558" style="stroke:#181818;stroke-width:1.0;"/></g><!--link Turn to TurnView--><g id="link_Turn_TurnView"><path codeLine="18" d="M712.5,483.201 C712.5,523.194 712.5,569.624 712.5,602.4392 " fill="none" id="Turn-to-TurnView" style="stroke:#181818;stroke-width:1.0;stroke-dasharray:7.0,7.0;"/><polygon fill="#181818" points="712.5,608.4392,716.5,599.4392,712.5,603.4392,708.5,599.4392,712.5,608.4392" style="stroke:#181818;stroke-width:1.0;"/></g><!--SRC=[TL9DJyCm3BtlL_GucBOJfnsGofWcf7rfAmo443AjAH5fF99i0tuzYVjTZKiRl_ViPoUE9HWJJ4WfZErLB-Pm1XasZWy2JqNuX6P9jm8afGLoGw2JvhcXdX78uXWTj6eSMTGhROFHw3ethP3BuR1bvjbAnjarubtOciEw2LRuGdcFLSYz-0_hwtOQVi4u67uTq5X1gek3CYVKNTJ04KDc-XSTRY1C-FukT0PM7F4SlSJq7mxCPqHh2JzX2a8vFX_36MeqXynd5C1WxrHUm9EDWqNu-BgUXq_JpRQ4R3MuawTe8_f4NxE457xRieA_4gwgXR8UABtRXB2oxA55x8HxIBqmwJboJiRyIqO2SwRd7zPF-a5Q_9Ao8Bs-08-ehOXRK28W9TM2X78wWpKo0FKJnX_khXDlaQ_DE9YivlUBvRQADwjT7Rpv__DB5GzZaeTCtQaDgDJNxX0JolOIBJjKbBlkEPtSHeL741BU96xt46C_Jsa88KciVvU866hKS8johlGWqRJFdv8J6mnVQ5cccBPrsIsBad4xD-6kkWIdJBKcj-D_]--></g></svg>