<?xml version="1.0" encoding="us-ascii" standalone="no"?><svg xmlns="http://www.w3.org/2000/svg" xmlns:xlink="http://www.w3.org/1999/xlink" contentStyleType="text/css" height="679px" preserveAspectRatio="none" style="width:773px;height:679px;background:#FFFFFF;" version="1.1" viewBox="0 0 773 679" width="773px" zoomAndPan="magnify"><defs/><g><!--class Connect4--><g id="elem_Connect4"><rect codeLine="1" fill="#F1F1F1" height="48" id="Connect4" rx="2.5" ry="2.5" style="stroke:#181818;stroke-width:0.5;" width="101" x="476" y="7"/><ellipse cx="491" cy="23" fill="#ADD1B2" rx="11" ry="11" style="stroke:#181818;stroke-width:1.0;"/><path d="M493.3438,18.6719 C492.4063,18.2344 491.8125,18.0938 490.9375,18.0938 C488.3125,18.0938 486.3125,20.1719 486.3125,22.8906 L486.3125,24.0156 C486.3125,26.5938 488.4219,28.4844 491.3125,28.4844 C492.5313,28.4844 493.6875,28.1875 494.4375,27.6406 C495.0156,27.2344 495.3438,26.7813 495.3438,26.3906 C495.3438,25.9375 494.9531,25.5469 494.4844,25.5469 C494.2656,25.5469 494.0625,25.625 493.875,25.8125 C493.4219,26.2969 493.4219,26.2969 493.2344,26.3906 C492.8125,26.6563 492.125,26.7813 491.3594,26.7813 C489.3125,26.7813 488.0156,25.6875 488.0156,23.9844 L488.0156,22.8906 C488.0156,21.1094 489.2656,19.7969 491,19.7969 C491.5781,19.7969 492.1875,19.9531 492.6563,20.2031 C493.1406,20.4844 493.3125,20.7031 493.4063,21.1094 C493.4688,21.5156 493.5,21.6406 493.6406,21.7656 C493.7813,21.9063 494.0156,22.0156 494.2344,22.0156 C494.5,22.0156 494.7656,21.875 494.9375,21.6563 C495.0469,21.5 495.0781,21.3125 495.0781,20.8906 L495.0781,19.4688 C495.0781,19.0313 495.0625,18.9063 494.9688,18.75 C494.8125,18.4844 494.5313,18.3438 494.2344,18.3438 C493.9375,18.3438 493.7344,18.4375 493.5156,18.75 L493.3438,18.6719 Z " fill="#000000"/><text fill="#000000" font-family="sans-serif" font-size="14" lengthAdjust="spacing" textLength="69" x="505" y="27.8467">Connect4</text><line style="stroke:#181818;stroke-width:0.5;" x1="477" x2="576" y1="39" y2="39"/><line style="stroke:#181818;stroke-width:0.5;" x1="477" x2="576" y1="47" y2="47"/></g><!--class Game--><g id="elem_Game"><rect codeLine="2" fill="#F1F1F1" height="80.5938" id="Game" rx="2.5" ry="2.5" style="stroke:#181818;stroke-width:0.5;" width="89" x="398" y="147.5"/><ellipse cx="419.75" cy="163.5" fill="#ADD1B2" rx="11" ry="11" style="stroke:#181818;stroke-width:1.0;"/><path d="M422.0938,159.1719 C421.1563,158.7344 420.5625,158.5938 419.6875,158.5938 C417.0625,158.5938 415.0625,160.6719 415.0625,163.3906 L415.0625,164.5156 C415.0625,167.0938 417.1719,168.9844 420.0625,168.9844 C421.2813,168.9844 422.4375,168.6875 423.1875,168.1406 C423.7656,167.7344 424.0938,167.2813 424.0938,166.8906 C424.0938,166.4375 423.7031,166.0469 423.2344,166.0469 C423.0156,166.0469 422.8125,166.125 422.625,166.3125 C422.1719,166.7969 422.1719,166.7969 421.9844,166.8906 C421.5625,167.1563 420.875,167.2813 420.1094,167.2813 C418.0625,167.2813 416.7656,166.1875 416.7656,164.4844 L416.7656,163.3906 C416.7656,161.6094 418.0156,160.2969 419.75,160.2969 C420.3281,160.2969 420.9375,160.4531 421.4063,160.7031 C421.8906,160.9844 422.0625,161.2031 422.1563,161.6094 C422.2188,162.0156 422.25,162.1406 422.3906,162.2656 C422.5313,162.4063 422.7656,162.5156 422.9844,162.5156 C423.25,162.5156 423.5156,162.375 423.6875,162.1563 C423.7969,162 423.8281,161.8125 423.8281,161.3906 L423.8281,159.9688 C423.8281,159.5313 423.8125,159.4063 423.7188,159.25 C423.5625,158.9844 423.2813,158.8438 422.9844,158.8438 C422.6875,158.8438 422.4844,158.9375 422.2656,159.25 L422.0938,159.1719 Z " fill="#000000"/><text fill="#000000" font-family="sans-serif" font-size="14" lengthAdjust="spacing" textLength="42" x="435.25" y="168.3467">Game</text><line style="stroke:#181818;stroke-width:0.5;" x1="399" x2="486" y1="179.5" y2="179.5"/><line style="stroke:#181818;stroke-width:0.5;" x1="399" x2="486" y1="187.5" y2="187.5"/><rect fill="#F24D5C" height="6" style="stroke:#C82930;stroke-width:1.0;" width="6" x="406" y="198.1484"/><text fill="#000000" font-family="sans-serif" font-size="14" lengthAdjust="spacing" textLength="63" x="418" y="204.4951">resume()</text><ellipse cx="409" cy="217.4453" fill="#84BE84" rx="3" ry="3" style="stroke:#038048;stroke-width:1.0;"/><text fill="#000000" font-family="sans-serif" font-size="14" lengthAdjust="spacing" textLength="40" x="418" y="220.792">play()</text></g><!--class GameView--><g id="elem_GameView"><rect codeLine="3" fill="#F1F1F1" height="113.1875" id="GameView" rx="2.5" ry="2.5" style="stroke:#181818;stroke-width:0.5;" width="151" x="7" y="362"/><ellipse cx="41.35" cy="378" fill="#ADD1B2" rx="11" ry="11" style="stroke:#181818;stroke-width:1.0;"/><path d="M43.6938,373.6719 C42.7563,373.2344 42.1625,373.0938 41.2875,373.0938 C38.6625,373.0938 36.6625,375.1719 36.6625,377.8906 L36.6625,379.0156 C36.6625,381.5938 38.7719,383.4844 41.6625,383.4844 C42.8813,383.4844 44.0375,383.1875 44.7875,382.6406 C45.3656,382.2344 45.6938,381.7813 45.6938,381.3906 C45.6938,380.9375 45.3031,380.5469 44.8344,380.5469 C44.6156,380.5469 44.4125,380.625 44.225,380.8125 C43.7719,381.2969 43.7719,381.2969 43.5844,381.3906 C43.1625,381.6563 42.475,381.7813 41.7094,381.7813 C39.6625,381.7813 38.3656,380.6875 38.3656,378.9844 L38.3656,377.8906 C38.3656,376.1094 39.6156,374.7969 41.35,374.7969 C41.9281,374.7969 42.5375,374.9531 43.0063,375.2031 C43.4906,375.4844 43.6625,375.7031 43.7563,376.1094 C43.8188,376.5156 43.85,376.6406 43.9906,376.7656 C44.1313,376.9063 44.3656,377.0156 44.5844,377.0156 C44.85,377.0156 45.1156,376.875 45.2875,376.6563 C45.3969,376.5 45.4281,376.3125 45.4281,375.8906 L45.4281,374.4688 C45.4281,374.0313 45.4125,373.9063 45.3188,373.75 C45.1625,373.4844 44.8813,373.3438 44.5844,373.3438 C44.2875,373.3438 44.0844,373.4375 43.8656,373.75 L43.6938,373.6719 Z " fill="#000000"/><text fill="#000000" font-family="sans-serif" font-size="14" lengthAdjust="spacing" textLength="76" x="59.65" y="382.8467">GameView</text><line style="stroke:#181818;stroke-width:0.5;" x1="8" x2="157" y1="394" y2="394"/><line style="stroke:#181818;stroke-width:0.5;" x1="8" x2="157" y1="402" y2="402"/><ellipse cx="18" cy="415.6484" fill="#84BE84" rx="3" ry="3" style="stroke:#038048;stroke-width:1.0;"/><text fill="#000000" font-family="sans-serif" font-size="14" lengthAdjust="spacing" textLength="79" x="27" y="418.9951">printTitle()</text><ellipse cx="18" cy="431.9453" fill="#84BE84" rx="3" ry="3" style="stroke:#038048;stroke-width:1.0;"/><text fill="#000000" font-family="sans-serif" font-size="14" lengthAdjust="spacing" textLength="125" x="27" y="435.292">printWinnerMsg()</text><ellipse cx="18" cy="448.2422" fill="#84BE84" rx="3" ry="3" style="stroke:#038048;stroke-width:1.0;"/><text fill="#000000" font-family="sans-serif" font-size="14" lengthAdjust="spacing" textLength="120" x="27" y="451.5889">printLosserMsg()</text><ellipse cx="18" cy="464.5391" fill="#84BE84" rx="3" ry="3" style="stroke:#038048;stroke-width:1.0;"/><text fill="#000000" font-family="sans-serif" font-size="14" lengthAdjust="spacing" textLength="96" x="27" y="467.8857">printTieMsg()</text></g><!--class YesNoDialog--><g id="elem_YesNoDialog"><rect codeLine="4" fill="#F1F1F1" height="145.7813" id="YesNoDialog" rx="2.5" ry="2.5" style="stroke:#181818;stroke-width:0.5;" width="179" x="522" y="115"/><ellipse cx="563.1" cy="131" fill="#ADD1B2" rx="11" ry="11" style="stroke:#181818;stroke-width:1.0;"/><path d="M565.4438,126.6719 C564.5063,126.2344 563.9125,126.0938 563.0375,126.0938 C560.4125,126.0938 558.4125,128.1719 558.4125,130.8906 L558.4125,132.0156 C558.4125,134.5938 560.5219,136.4844 563.4125,136.4844 C564.6313,136.4844 565.7875,136.1875 566.5375,135.6406 C567.1156,135.2344 567.4438,134.7813 567.4438,134.3906 C567.4438,133.9375 567.0531,133.5469 566.5844,133.5469 C566.3656,133.5469 566.1625,133.625 565.975,133.8125 C565.5219,134.2969 565.5219,134.2969 565.3344,134.3906 C564.9125,134.6563 564.225,134.7813 563.4594,134.7813 C561.4125,134.7813 560.1156,133.6875 560.1156,131.9844 L560.1156,130.8906 C560.1156,129.1094 561.3656,127.7969 563.1,127.7969 C563.6781,127.7969 564.2875,127.9531 564.7563,128.2031 C565.2406,128.4844 565.4125,128.7031 565.5063,129.1094 C565.5688,129.5156 565.6,129.6406 565.7406,129.7656 C565.8813,129.9063 566.1156,130.0156 566.3344,130.0156 C566.6,130.0156 566.8656,129.875 567.0375,129.6563 C567.1469,129.5 567.1781,129.3125 567.1781,128.8906 L567.1781,127.4688 C567.1781,127.0313 567.1625,126.9063 567.0688,126.75 C566.9125,126.4844 566.6313,126.3438 566.3344,126.3438 C566.0375,126.3438 565.8344,126.4375 565.6156,126.75 L565.4438,126.6719 Z " fill="#000000"/><text fill="#000000" font-family="sans-serif" font-size="14" lengthAdjust="spacing" textLength="89" x="582.9" y="135.8467">YesNoDialog</text><line style="stroke:#181818;stroke-width:0.5;" x1="523" x2="700" y1="147" y2="147"/><rect fill="none" height="6" style="stroke:#C82930;stroke-width:1.0;" width="6" x="530" y="157.6484"/><text fill="#000000" font-family="sans-serif" font-size="14" lengthAdjust="spacing" textLength="62" x="542" y="163.9951">question</text><rect fill="none" height="6" style="stroke:#C82930;stroke-width:1.0;" width="6" x="530" y="173.9453"/><text fill="#000000" font-family="sans-serif" font-size="14" lengthAdjust="spacing" textLength="50" x="542" y="180.292">answer</text><line style="stroke:#181818;stroke-width:0.5;" x1="523" x2="700" y1="187.5938" y2="187.5938"/><rect fill="#F24D5C" height="6" style="stroke:#C82930;stroke-width:1.0;" width="6" x="530" y="198.2422"/><text fill="#000000" font-family="sans-serif" font-size="14" lengthAdjust="spacing" textLength="94" x="542" y="204.5889">saveAnswer()</text><ellipse cx="533" cy="217.5391" fill="#84BE84" rx="3" ry="3" style="stroke:#038048;stroke-width:1.0;"/><text fill="#000000" font-family="sans-serif" font-size="14" lengthAdjust="spacing" textLength="153" x="542" y="220.8857">answerisAffirmative()</text><ellipse cx="533" cy="233.8359" fill="#84BE84" rx="3" ry="3" style="stroke:#038048;stroke-width:1.0;"/><text fill="#000000" font-family="sans-serif" font-size="14" lengthAdjust="spacing" textLength="85" x="542" y="237.1826">isNegative()</text><ellipse cx="533" cy="250.1328" fill="#84BE84" rx="3" ry="3" style="stroke:#038048;stroke-width:1.0;"/><text fill="#000000" font-family="sans-serif" font-size="14" lengthAdjust="spacing" textLength="121" x="542" y="253.4795">askToPlayAgain()</text></g><!--class Board--><g id="elem_Board"><rect codeLine="5" fill="#F1F1F1" height="194.6719" id="Board" rx="2.5" ry="2.5" style="stroke:#181818;stroke-width:0.5;" width="273" x="193" y="321"/><ellipse cx="304.25" cy="337" fill="#ADD1B2" rx="11" ry="11" style="stroke:#181818;stroke-width:1.0;"/><path d="M306.5938,332.6719 C305.6563,332.2344 305.0625,332.0938 304.1875,332.0938 C301.5625,332.0938 299.5625,334.1719 299.5625,336.8906 L299.5625,338.0156 C299.5625,340.5938 301.6719,342.4844 304.5625,342.4844 C305.7813,342.4844 306.9375,342.1875 307.6875,341.6406 C308.2656,341.2344 308.5938,340.7813 308.5938,340.3906 C308.5938,339.9375 308.2031,339.5469 307.7344,339.5469 C307.5156,339.5469 307.3125,339.625 307.125,339.8125 C306.6719,340.2969 306.6719,340.2969 306.4844,340.3906 C306.0625,340.6563 305.375,340.7813 304.6094,340.7813 C302.5625,340.7813 301.2656,339.6875 301.2656,337.9844 L301.2656,336.8906 C301.2656,335.1094 302.5156,333.7969 304.25,333.7969 C304.8281,333.7969 305.4375,333.9531 305.9063,334.2031 C306.3906,334.4844 306.5625,334.7031 306.6563,335.1094 C306.7188,335.5156 306.75,335.6406 306.8906,335.7656 C307.0313,335.9063 307.2656,336.0156 307.4844,336.0156 C307.75,336.0156 308.0156,335.875 308.1875,335.6563 C308.2969,335.5 308.3281,335.3125 308.3281,334.8906 L308.3281,333.4688 C308.3281,333.0313 308.3125,332.9063 308.2188,332.75 C308.0625,332.4844 307.7813,332.3438 307.4844,332.3438 C307.1875,332.3438 306.9844,332.4375 306.7656,332.75 L306.5938,332.6719 Z " fill="#000000"/><text fill="#000000" font-family="sans-serif" font-size="14" lengthAdjust="spacing" textLength="42" x="324.75" y="341.8467">Board</text><line style="stroke:#181818;stroke-width:0.5;" x1="194" x2="465" y1="353" y2="353"/><text fill="#000000" font-family="sans-serif" font-size="14" lengthAdjust="spacing" textLength="69" x="199" y="369.9951">COLUMNS</text><text fill="#000000" font-family="sans-serif" font-size="14" lengthAdjust="spacing" textLength="44" x="199" y="386.292">ROWS</text><text fill="#000000" font-family="sans-serif" font-size="14" lengthAdjust="spacing" textLength="52" x="199" y="402.5889">board[]</text><line style="stroke:#181818;stroke-width:0.5;" x1="194" x2="465" y1="409.8906" y2="409.8906"/><rect fill="#F24D5C" height="6" style="stroke:#C82930;stroke-width:1.0;" width="6" x="201" y="420.5391"/><text fill="#000000" font-family="sans-serif" font-size="14" lengthAdjust="spacing" textLength="120" x="213" y="426.8857">columnInRange()</text><rect fill="#F24D5C" height="6" style="stroke:#C82930;stroke-width:1.0;" width="6" x="201" y="436.8359"/><text fill="#000000" font-family="sans-serif" font-size="14" lengthAdjust="spacing" textLength="143" x="213" y="443.1826">columnCompleted()</text><rect fill="#F24D5C" height="6" style="stroke:#C82930;stroke-width:1.0;" width="6" x="201" y="453.1328"/><text fill="#000000" font-family="sans-serif" font-size="14" lengthAdjust="spacing" textLength="247" x="213" y="459.4795">getLowestAvailableSpace(column)</text><rect fill="#F24D5C" height="6" style="stroke:#C82930;stroke-width:1.0;" width="6" x="201" y="469.4297"/><text fill="#000000" font-family="sans-serif" font-size="14" lengthAdjust="spacing" textLength="139" x="213" y="475.7764">addtokenToBoard()</text><ellipse cx="204" cy="488.7266" fill="#84BE84" rx="3" ry="3" style="stroke:#038048;stroke-width:1.0;"/><text fill="#000000" font-family="sans-serif" font-size="14" lengthAdjust="spacing" textLength="102" x="213" y="492.0732">isCompleted()</text><ellipse cx="204" cy="505.0234" fill="#84BE84" rx="3" ry="3" style="stroke:#038048;stroke-width:1.0;"/><text fill="#000000" font-family="sans-serif" font-size="14" lengthAdjust="spacing" textLength="132" x="213" y="508.3701">dropToken(token)</text></g><!--class BoardView--><g id="elem_BoardView"><rect codeLine="6" fill="#F1F1F1" height="96.8906" id="BoardView" rx="2.5" ry="2.5" style="stroke:#181818;stroke-width:0.5;" width="114" x="272.5" y="576"/><ellipse cx="290.2" cy="592" fill="#ADD1B2" rx="11" ry="11" style="stroke:#181818;stroke-width:1.0;"/><path d="M292.5438,587.6719 C291.6063,587.2344 291.0125,587.0938 290.1375,587.0938 C287.5125,587.0938 285.5125,589.1719 285.5125,591.8906 L285.5125,593.0156 C285.5125,595.5938 287.6219,597.4844 290.5125,597.4844 C291.7313,597.4844 292.8875,597.1875 293.6375,596.6406 C294.2156,596.2344 294.5438,595.7813 294.5438,595.3906 C294.5438,594.9375 294.1531,594.5469 293.6844,594.5469 C293.4656,594.5469 293.2625,594.625 293.075,594.8125 C292.6219,595.2969 292.6219,595.2969 292.4344,595.3906 C292.0125,595.6563 291.325,595.7813 290.5594,595.7813 C288.5125,595.7813 287.2156,594.6875 287.2156,592.9844 L287.2156,591.8906 C287.2156,590.1094 288.4656,588.7969 290.2,588.7969 C290.7781,588.7969 291.3875,588.9531 291.8563,589.2031 C292.3406,589.4844 292.5125,589.7031 292.6063,590.1094 C292.6688,590.5156 292.7,590.6406 292.8406,590.7656 C292.9813,590.9063 293.2156,591.0156 293.4344,591.0156 C293.7,591.0156 293.9656,590.875 294.1375,590.6563 C294.2469,590.5 294.2781,590.3125 294.2781,589.8906 L294.2781,588.4688 C294.2781,588.0313 294.2625,587.9063 294.1688,587.75 C294.0125,587.4844 293.7313,587.3438 293.4344,587.3438 C293.1375,587.3438 292.9344,587.4375 292.7156,587.75 L292.5438,587.6719 Z " fill="#000000"/><text fill="#000000" font-family="sans-serif" font-size="14" lengthAdjust="spacing" textLength="76" x="304.8" y="596.8467">BoardView</text><line style="stroke:#181818;stroke-width:0.5;" x1="273.5" x2="385.5" y1="608" y2="608"/><line style="stroke:#181818;stroke-width:0.5;" x1="273.5" x2="385.5" y1="616" y2="616"/><ellipse cx="283.5" cy="629.6484" fill="#84BE84" rx="3" ry="3" style="stroke:#038048;stroke-width:1.0;"/><text fill="#000000" font-family="sans-serif" font-size="14" lengthAdjust="spacing" textLength="88" x="292.5" y="632.9951">printBoard()</text><ellipse cx="283.5" cy="645.9453" fill="#84BE84" rx="3" ry="3" style="stroke:#038048;stroke-width:1.0;"/><text fill="#000000" font-family="sans-serif" font-size="14" lengthAdjust="spacing" textLength="88" x="292.5" y="649.292">askColumn()</text><ellipse cx="283.5" cy="662.2422" fill="#84BE84" rx="3" ry="3" style="stroke:#038048;stroke-width:1.0;"/><text fill="#000000" font-family="sans-serif" font-size="14" lengthAdjust="spacing" textLength="82" x="292.5" y="665.5889">printError()</text></g><!--class Goal--><g id="elem_Goal"><rect codeLine="7" fill="#F1F1F1" height="129.4844" id="Goal" rx="2.5" ry="2.5" style="stroke:#181818;stroke-width:0.5;" width="109" x="501" y="354"/><ellipse cx="536.25" cy="370" fill="#ADD1B2" rx="11" ry="11" style="stroke:#181818;stroke-width:1.0;"/><path d="M538.5938,365.6719 C537.6563,365.2344 537.0625,365.0938 536.1875,365.0938 C533.5625,365.0938 531.5625,367.1719 531.5625,369.8906 L531.5625,371.0156 C531.5625,373.5938 533.6719,375.4844 536.5625,375.4844 C537.7813,375.4844 538.9375,375.1875 539.6875,374.6406 C540.2656,374.2344 540.5938,373.7813 540.5938,373.3906 C540.5938,372.9375 540.2031,372.5469 539.7344,372.5469 C539.5156,372.5469 539.3125,372.625 539.125,372.8125 C538.6719,373.2969 538.6719,373.2969 538.4844,373.3906 C538.0625,373.6563 537.375,373.7813 536.6094,373.7813 C534.5625,373.7813 533.2656,372.6875 533.2656,370.9844 L533.2656,369.8906 C533.2656,368.1094 534.5156,366.7969 536.25,366.7969 C536.8281,366.7969 537.4375,366.9531 537.9063,367.2031 C538.3906,367.4844 538.5625,367.7031 538.6563,368.1094 C538.7188,368.5156 538.75,368.6406 538.8906,368.7656 C539.0313,368.9063 539.2656,369.0156 539.4844,369.0156 C539.75,369.0156 540.0156,368.875 540.1875,368.6563 C540.2969,368.5 540.3281,368.3125 540.3281,367.8906 L540.3281,366.4688 C540.3281,366.0313 540.3125,365.9063 540.2188,365.75 C540.0625,365.4844 539.7813,365.3438 539.4844,365.3438 C539.1875,365.3438 538.9844,365.4375 538.7656,365.75 L538.5938,365.6719 Z " fill="#000000"/><text fill="#000000" font-family="sans-serif" font-size="14" lengthAdjust="spacing" textLength="32" x="554.75" y="374.8467">Goal</text><line style="stroke:#181818;stroke-width:0.5;" x1="502" x2="609" y1="386" y2="386"/><line style="stroke:#181818;stroke-width:0.5;" x1="502" x2="609" y1="394" y2="394"/><rect fill="#F24D5C" height="6" style="stroke:#C82930;stroke-width:1.0;" width="6" x="509" y="404.6484"/><text fill="#000000" font-family="sans-serif" font-size="14" lengthAdjust="spacing" textLength="83" x="521" y="410.9951">horizontal()</text><rect fill="#F24D5C" height="6" style="stroke:#C82930;stroke-width:1.0;" width="6" x="509" y="420.9453"/><text fill="#000000" font-family="sans-serif" font-size="14" lengthAdjust="spacing" textLength="64" x="521" y="427.292">vertical()</text><rect fill="#F24D5C" height="6" style="stroke:#C82930;stroke-width:1.0;" width="6" x="509" y="437.2422"/><text fill="#000000" font-family="sans-serif" font-size="14" lengthAdjust="spacing" textLength="70" x="521" y="443.5889">diagonal()</text><rect fill="#F24D5C" height="6" style="stroke:#C82930;stroke-width:1.0;" width="6" x="509" y="453.5391"/><text fill="#000000" font-family="sans-serif" font-size="14" lengthAdjust="spacing" textLength="62" x="521" y="459.8857">inverse()</text><ellipse cx="512" cy="472.8359" fill="#84BE84" rx="3" ry="3" style="stroke:#038048;stroke-width:1.0;"/><text fill="#000000" font-family="sans-serif" font-size="14" lengthAdjust="spacing" textLength="35" x="521" y="476.1826">any()</text></g><!--class Turn--><g id="elem_Turn"><rect codeLine="8" fill="#F1F1F1" height="113.1875" id="Turn" rx="2.5" ry="2.5" style="stroke:#181818;stroke-width:0.5;" width="121" x="645" y="362"/><ellipse cx="685.65" cy="378" fill="#ADD1B2" rx="11" ry="11" style="stroke:#181818;stroke-width:1.0;"/><path d="M687.9938,373.6719 C687.0563,373.2344 686.4625,373.0938 685.5875,373.0938 C682.9625,373.0938 680.9625,375.1719 680.9625,377.8906 L680.9625,379.0156 C680.9625,381.5938 683.0719,383.4844 685.9625,383.4844 C687.1813,383.4844 688.3375,383.1875 689.0875,382.6406 C689.6656,382.2344 689.9938,381.7813 689.9938,381.3906 C689.9938,380.9375 689.6031,380.5469 689.1344,380.5469 C688.9156,380.5469 688.7125,380.625 688.525,380.8125 C688.0719,381.2969 688.0719,381.2969 687.8844,381.3906 C687.4625,381.6563 686.775,381.7813 686.0094,381.7813 C683.9625,381.7813 682.6656,380.6875 682.6656,378.9844 L682.6656,377.8906 C682.6656,376.1094 683.9156,374.7969 685.65,374.7969 C686.2281,374.7969 686.8375,374.9531 687.3063,375.2031 C687.7906,375.4844 687.9625,375.7031 688.0563,376.1094 C688.1188,376.5156 688.15,376.6406 688.2906,376.7656 C688.4313,376.9063 688.6656,377.0156 688.8844,377.0156 C689.15,377.0156 689.4156,376.875 689.5875,376.6563 C689.6969,376.5 689.7281,376.3125 689.7281,375.8906 L689.7281,374.4688 C689.7281,374.0313 689.7125,373.9063 689.6188,373.75 C689.4625,373.4844 689.1813,373.3438 688.8844,373.3438 C688.5875,373.3438 688.3844,373.4375 688.1656,373.75 L687.9938,373.6719 Z " fill="#000000"/><text fill="#000000" font-family="sans-serif" font-size="14" lengthAdjust="spacing" textLength="32" x="705.35" y="382.8467">Turn</text><line style="stroke:#181818;stroke-width:0.5;" x1="646" x2="765" y1="394" y2="394"/><text fill="#000000" font-family="sans-serif" font-size="14" lengthAdjust="spacing" textLength="109" x="651" y="410.9951">MAX_GameERS</text><text fill="#000000" font-family="sans-serif" font-size="14" lengthAdjust="spacing" textLength="30" x="651" y="427.292">turn</text><line style="stroke:#181818;stroke-width:0.5;" x1="646" x2="765" y1="434.5938" y2="434.5938"/><ellipse cx="656" cy="448.2422" fill="#84BE84" rx="3" ry="3" style="stroke:#038048;stroke-width:1.0;"/><text fill="#000000" font-family="sans-serif" font-size="14" lengthAdjust="spacing" textLength="80" x="665" y="451.5889">getToken()</text><ellipse cx="656" cy="464.5391" fill="#84BE84" rx="3" ry="3" style="stroke:#038048;stroke-width:1.0;"/><text fill="#000000" font-family="sans-serif" font-size="14" lengthAdjust="spacing" textLength="75" x="665" y="467.8857">nextTurn()</text></g><!--reverse link Connect4 to Game--><g id="link_Connect4_Game"><path codeLine="10" d="M508.2064,65.7553 C495.0254,90.0773 479.792,118.188 463.982,147.36 " fill="none" id="Connect4-backto-Game" style="stroke:#181818;stroke-width:1.0;"/><polygon fill="#181818" points="513.924,55.205,507.5484,58.5743,508.2064,65.7553,514.582,62.386,513.924,55.205" style="stroke:#181818;stroke-width:1.0;"/></g><!--reverse link Connect4 to YesNoDialog--><g id="link_Connect4_YesNoDialog"><path codeLine="11" d="M544.9948,65.7268 C553.7478,81.6888 560.118,93.303 571.951,114.881 " fill="none" id="Connect4-backto-YesNoDialog" style="stroke:#181818;stroke-width:1.0;"/><polygon fill="#181818" points="539.225,55.205,538.6026,62.3892,544.9948,65.7268,545.6172,58.5427,539.225,55.205" style="stroke:#181818;stroke-width:1.0;"/></g><!--link Game to GameView--><g id="link_Game_GameView"><path codeLine="12" d="M397.83,205.538 C342.582,227.197 247.079,268.646 175.5,321 C159.349,332.813 147.7137,343.256 133.8587,357.658 " fill="none" id="Game-to-GameView" style="stroke:#181818;stroke-width:1.0;stroke-dasharray:7.0,7.0;"/><polygon fill="#181818" points="129.699,361.982,138.8212,358.2692,133.1654,358.3787,133.056,352.7229,129.699,361.982" style="stroke:#181818;stroke-width:1.0;"/></g><!--link Game to Goal--><g id="link_Game_Goal"><path codeLine="13" d="M462.054,228.541 C479.109,263.029 501.5032,308.3128 521.3772,348.4988 " fill="none" id="Game-to-Goal" style="stroke:#181818;stroke-width:1.0;stroke-dasharray:7.0,7.0;"/><polygon fill="#181818" points="524.037,353.877,523.6328,344.0364,521.8205,349.3951,516.4618,347.5829,524.037,353.877" style="stroke:#181818;stroke-width:1.0;"/></g><!--link Board to BoardView--><g id="link_Board_BoardView"><path codeLine="14" d="M329.5,516.123 C329.5,536.926 329.5,552.028 329.5,569.9546 " fill="none" id="Board-to-BoardView" style="stroke:#181818;stroke-width:1.0;stroke-dasharray:7.0,7.0;"/><polygon fill="#181818" points="329.5,575.9546,333.5,566.9546,329.5,570.9546,325.5,566.9546,329.5,575.9546" style="stroke:#181818;stroke-width:1.0;"/></g><!--reverse link Game to Board--><g id="link_Game_Board"><path codeLine="15" d="M417.6265,239.2975 C404.9925,264.8445 393.29,288.509 377.235,320.973 " fill="none" id="Game-backto-Board" style="stroke:#181818;stroke-width:1.0;"/><polygon fill="#181818" points="422.946,228.541,416.7007,232.1461,417.6265,239.2975,423.8717,235.6924,422.946,228.541" style="stroke:#181818;stroke-width:1.0;"/></g><!--link Game to Turn--><g id="link_Game_Turn"><path codeLine="16" d="M471.752,228.751 C481.342,240.086 492.612,251.834 504.5,261 C552.667,298.141 579.917,283.113 627.5,321 C642.077,332.607 651.9467,342.7131 663.6067,357.1981 " fill="none" id="Game-to-Turn" style="stroke:#181818;stroke-width:1.0;stroke-dasharray:7.0,7.0;"/><polygon fill="#181818" points="667.369,361.872,664.8414,352.353,664.2337,357.9771,658.6096,357.3694,667.369,361.872" style="stroke:#181818;stroke-width:1.0;"/></g><!--SRC=[TL9DRzim3BtxL_ZOBKXFFUKmmCsAea2I3ecxRXY6WRKPZwWiPfAIhFtr4oL_hps9V8zyJw9OAB0sNRBMMBYhf0ZfBTGu2ByIdflqEzeDVoPGN3N8DOCfX_6W-fP1DM5-D3f9Mf_qutmUNKR8K5tOzFBoKt-37X7Pu1NItZLKY52yLDSGpGVgwIAT_pcYTSHwYeEsPpHJrC89iy1SV9XmizX1DjlloTJWw8J_5v7TOFKE1_OvvoyANh8AI7i-NjtR6hJ7MZeQO7RmLLAG9F8eZwopRx-4lDdkMiZ9SvjuLg7B-Hb5jOKq_dKIjqOokw1jIBkSd6eDHyGZ-PyoQrkzHQxOsdV9d30oYVoSFEit6tfbxK19VGEUq3WgHb19KB4UGQHzdSKUyUCF4uaBiKYNzwk7zMRNvTlxnpvvalF7powV5woEjRxJMz2LY4w89TS7XGxB8UL7kkAptvxi1AJWIU7k00LUn9P18PIbazdd7A21Xb-7jwHdfU53_AxGA1_ThNStpv5Oo_WTMWR_AH5QRenXlxd_0000]--></g></svg>